Adamina-Regular.ufo
<glyph name="exclam" format="1">
  <advance width="268"/>
  <unicode hex="0021"/>
  <outline>
    <contour>
      <point x="114" y="189" type="line"/>
      <point x="126" y="186"/>
      <point x="146" y="185"/>
      <point x="158" y="189" type="curve"/>
      <point x="184" y="799" type="line"/>
      <point x="170" y="807"/>
      <point x="153" y="811"/>
      <point x="135" y="811" type="curve" smooth="yes"/>
      <point x="116" y="811"/>
      <point x="96" y="807"/>
      <point x="77" y="799" type="curve"/>
    </contour>
    <contour>
      <point x="73" y="15"/>
      <point x="101" y="-13"/>
      <point x="136" y="-13" type="curve" smooth="yes"/>
      <point x="171" y="-13"/>
      <point x="199" y="15"/>
      <point x="199" y="50" type="curve" smooth="yes"/>
      <point x="199" y="85"/>
      <point x="170" y="111"/>
      <point x="135" y="111" type="curve" smooth="yes"/>
      <point x="100" y="111"/>
      <point x="73" y="85"/>
      <point x="73" y="50" type="curve" smooth="yes"/>
    </contour>
  </outline>
</glyph>
<glyph name="numbersign" format="1">
  <advance width="639"/>
  <unicode hex="0023"/>
  <outline>
    <contour>
      <point x="119" y="530" type="line"/>
      <point x="106" y="513"/>
      <point x="104" y="497"/>
      <point x="105" y="480" type="curve"/>
      <point x="224" y="480" type="line"/>
      <point x="169" y="285" type="line"/>
      <point x="49" y="285" type="line"/>
      <point x="36" y="268"/>
      <point x="34" y="252"/>
      <point x="35" y="235" type="curve"/>
      <point x="155" y="235" type="line"/>
      <point x="86" y="-11" type="line"/>
      <point x="103" y="-17"/>
      <point x="119" y="-15"/>
      <point x="136" y="-11" type="curve"/>
      <point x="205" y="235" type="line"/>
      <point x="345" y="235" type="line"/>
      <point x="276" y="-11" type="line"/>
      <point x="293" y="-17"/>
      <point x="309" y="-15"/>
      <point x="326" y="-11" type="curve"/>
      <point x="395" y="235" type="line"/>
      <point x="517" y="235" type="line"/>
      <point x="531" y="251"/>
      <point x="536" y="267"/>
      <point x="531" y="285" type="curve"/>
      <point x="409" y="285" type="line"/>
      <point x="465" y="480" type="line"/>
      <point x="587" y="480" type="line"/>
      <point x="601" y="496"/>
      <point x="606" y="512"/>
      <point x="601" y="530" type="curve"/>
      <point x="479" y="530" type="line"/>
      <point x="555" y="799" type="line"/>
      <point x="538" y="803"/>
      <point x="522" y="803"/>
      <point x="505" y="799" type="curve"/>
      <point x="428" y="530" type="line"/>
      <point x="289" y="530" type="line"/>
      <point x="365" y="799" type="line"/>
      <point x="348" y="803"/>
      <point x="332" y="803"/>
      <point x="315" y="799" type="curve"/>
      <point x="238" y="530" type="line"/>
    </contour>
    <contour>
      <point x="275" y="480" type="line"/>
      <point x="414" y="480" type="line"/>
      <point x="359" y="285" type="line"/>
      <point x="219" y="285" type="line"/>
    </contour>
  </outline>
</glyph>
<glyph name="dollar" format="1">
  <advance width="661"/>
  <unicode hex="0024"/>
  <outline>
    <contour>
      <point x="305" y="-85" type="line"/>
      <point x="320" y="-90"/>
      <point x="335" y="-91"/>
      <point x="355" y="-85" type="curve"/>
      <point x="355" y="-18" type="line"/>
      <point x="512" y="-5"/>
      <point x="616" y="82"/>
      <point x="616" y="208" type="curve" smooth="yes"/>
      <point x="616" y="273"/>
      <point x="585" y="339"/>
      <point x="494" y="393" type="curve"/>
      <point x="355" y="478" type="line"/>
      <point x="355" y="772" type="line"/>
      <point x="398" y="770"/>
      <point x="444" y="758"/>
      <point x="485" y="731" type="curve"/>
      <point x="517" y="564" type="line"/>
      <point x="529" y="561"/>
      <point x="562" y="562"/>
      <point x="574" y="564" type="curve"/>
      <point x="574" y="756" type="line"/>
      <point x="501" y="795"/>
      <point x="436" y="814"/>
      <point x="355" y="816" type="curve"/>
      <point x="355" y="901" type="line"/>
      <point x="340" y="908"/>
      <point x="325" y="910"/>
      <point x="305" y="901" type="curve"/>
      <point x="305" y="814" type="line"/>
      <point x="186" y="803"/>
      <point x="77" y="743"/>
      <point x="77" y="631" type="curve" smooth="yes"/>
      <point x="77" y="545"/>
      <point x="115" y="486"/>
      <point x="170" y="453" type="curve"/>
      <point x="305" y="368" type="line"/>
      <point x="305" y="29" type="line"/>
      <point x="253" y="31"/>
      <point x="206" y="40"/>
      <point x="163" y="69" type="curve"/>
      <point x="131" y="231" type="line"/>
      <point x="119" y="234"/>
      <point x="86" y="233"/>
      <point x="74" y="231" type="curve"/>
      <point x="74" y="39" type="line"/>
      <point x="147" y="0"/>
      <point x="214" y="-19"/>
      <point x="305" y="-20" type="curve"/>
    </contour>
    <contour>
      <point x="409" y="303" type="line"/>
      <point x="467" y="269"/>
      <point x="498" y="242"/>
      <point x="498" y="168" type="curve" smooth="yes"/>
      <point x="498" y="104"/>
      <point x="456" y="37"/>
      <point x="355" y="29" type="curve"/>
      <point x="355" y="337" type="line"/>
    </contour>
    <contour>
      <point x="186" y="723"/>
      <point x="239" y="760"/>
      <point x="305" y="769" type="curve"/>
      <point x="305" y="509" type="line"/>
      <point x="250" y="543" type="line" smooth="yes"/>
      <point x="206" y="570"/>
      <point x="186" y="603"/>
      <point x="186" y="656" type="curve" smooth="yes"/>
    </contour>
  </outline>
</glyph>
<glyph name="percent" format="1">
  <advance width="992"/>
  <unicode hex="0025"/>
  <outline>
    <contour>
      <point x="845" y="-30"/>
      <point x="911" y="69"/>
      <point x="911" y="190" type="curve" smooth="yes"/>
      <point x="911" y="326"/>
      <point x="845" y="426"/>
      <point x="729" y="426" type="curve" smooth="yes"/>
      <point x="615" y="426"/>
      <point x="549" y="326"/>
      <point x="549" y="190" type="curve" smooth="yes"/>
      <point x="549" y="69"/>
      <point x="614" y="-30"/>
      <point x="729" y="-30" type="curve" smooth="yes"/>
    </contour>
    <contour>
      <point x="670" y="8"/>
      <point x="624" y="74"/>
      <point x="624" y="204" type="curve" smooth="yes"/>
      <point x="624" y="320"/>
      <point x="655" y="388"/>
      <point x="729" y="388" type="curve" smooth="yes"/>
      <point x="805" y="388"/>
      <point x="836" y="320"/>
      <point x="836" y="204" type="curve" smooth="yes"/>
      <point x="836" y="74"/>
      <point x="790" y="8"/>
      <point x="729" y="8" type="curve" smooth="yes"/>
    </contour>
    <contour>
      <point x="362" y="348"/>
      <point x="428" y="447"/>
      <point x="428" y="568" type="curve" smooth="yes"/>
      <point x="428" y="704"/>
      <point x="362" y="804"/>
      <point x="246" y="804" type="curve" smooth="yes"/>
      <point x="132" y="804"/>
      <point x="66" y="704"/>
      <point x="66" y="568" type="curve" smooth="yes"/>
      <point x="66" y="447"/>
      <point x="131" y="348"/>
      <point x="246" y="348" type="curve" smooth="yes"/>
    </contour>
    <contour>
      <point x="187" y="386"/>
      <point x="141" y="452"/>
      <point x="141" y="582" type="curve" smooth="yes"/>
      <point x="141" y="698"/>
      <point x="172" y="766"/>
      <point x="246" y="766" type="curve" smooth="yes"/>
      <point x="322" y="766"/>
      <point x="353" y="698"/>
      <point x="353" y="582" type="curve" smooth="yes"/>
      <point x="353" y="452"/>
      <point x="307" y="386"/>
      <point x="246" y="386" type="curve" smooth="yes"/>
    </contour>
    <component base="fraction" xOffset="274"/>
  </outline>
</glyph>
<glyph name="ampersand" format="1">
  <advance width="806"/>
  <unicode hex="0026"/>
  <outline>
    <contour>
      <point x="693" y="332" type="line"/>
      <point x="697" y="344"/>
      <point x="697" y="356"/>
      <point x="693" y="368" type="curve"/>
      <point x="650" y="366"/>
      <point x="628" y="365"/>
      <point x="605" y="365" type="curve" smooth="yes"/>
      <point x="582" y="365"/>
      <point x="559" y="366"/>
      <point x="518" y="369" type="curve"/>
      <point x="516" y="357"/>
      <point x="515" y="344"/>
      <point x="518" y="332" type="curve"/>
      <point x="580" y="332" type="line"/>
      <point x="571" y="286"/>
      <point x="556" y="241"/>
      <point x="535" y="200" type="curve"/>
      <point x="349" y="440" type="line"/>
      <point x="501" y="550"/>
      <point x="517" y="603"/>
      <point x="517" y="655" type="curve" smooth="yes"/>
      <point x="517" y="750"/>
      <point x="452" y="806"/>
      <point x="319" y="806" type="curve" smooth="yes"/>
      <point x="188" y="806"/>
      <point x="120" y="725"/>
      <point x="120" y="631" type="curve" smooth="yes"/>
      <point x="120" y="588"/>
      <point x="142" y="532"/>
      <point x="190" y="470" type="curve" smooth="yes"/>
      <point x="234" y="412" type="line"/>
      <point x="105" y="333"/>
      <point x="44" y="273"/>
      <point x="44" y="168" type="curve" smooth="yes"/>
      <point x="44" y="48"/>
      <point x="144" y="-14"/>
      <point x="261" y="-14" type="curve" smooth="yes"/>
      <point x="361" y="-14"/>
      <point x="438" y="19"/>
      <point x="496" y="74" type="curve"/>
      <point x="500" y="69" type="line" smooth="yes"/>
      <point x="541" y="15"/>
      <point x="601" y="-15"/>
      <point x="656" y="-15" type="curve" smooth="yes"/>
      <point x="747" y="-15"/>
      <point x="805" y="68"/>
      <point x="805" y="99" type="curve" smooth="yes"/>
      <point x="805" y="118"/>
      <point x="796" y="147"/>
      <point x="764" y="147" type="curve" smooth="yes"/>
      <point x="737" y="147"/>
      <point x="713" y="133"/>
      <point x="692" y="107" type="curve"/>
      <point x="707" y="79"/>
      <point x="717" y="59"/>
      <point x="717" y="45" type="curve" smooth="yes"/>
      <point x="717" y="34"/>
      <point x="709" y="28"/>
      <point x="700" y="28" type="curve" smooth="yes"/>
      <point x="676" y="28"/>
      <point x="638" y="68"/>
      <point x="572" y="154" type="curve"/>
      <point x="564" y="163" type="line"/>
      <point x="593" y="213"/>
      <point x="614" y="271"/>
      <point x="627" y="332" type="curve"/>
    </contour>
    <contour>
      <point x="219" y="32"/>
      <point x="163" y="74"/>
      <point x="163" y="184" type="curve" smooth="yes"/>
      <point x="163" y="237"/>
      <point x="176" y="310"/>
      <point x="261" y="377" type="curve"/>
      <point x="470" y="107" type="line"/>
      <point x="425" y="61"/>
      <point x="366" y="32"/>
      <point x="291" y="32" type="curve" smooth="yes"/>
    </contour>
    <contour>
      <point x="217" y="734"/>
      <point x="259" y="773"/>
      <point x="319" y="773" type="curve" smooth="yes"/>
      <point x="394" y="773"/>
      <point x="418" y="719"/>
      <point x="418" y="639" type="curve" smooth="yes"/>
      <point x="418" y="581"/>
      <point x="376" y="512"/>
      <point x="324" y="471" type="curve"/>
      <point x="276" y="534" type="line" smooth="yes"/>
      <point x="234" y="587"/>
      <point x="217" y="635"/>
      <point x="217" y="674" type="curve" smooth="yes"/>
    </contour>
  </outline>
</glyph>
<glyph name="period" format="1">
  <advance width="226"/>
  <unicode hex="002E"/>
  <outline>
    <contour>
      <point x="50" y="15"/>
      <point x="78" y="-13"/>
      <point x="113" y="-13" type="curve" smooth="yes"/>
      <point x="148" y="-13"/>
      <point x="176" y="15"/>
      <point x="176" y="50" type="curve" smooth="yes"/>
      <point x="176" y="85"/>
      <point x="147" y="111"/>
      <point x="112" y="111" type="curve" smooth="yes"/>
      <point x="77" y="111"/>
      <point x="50" y="85"/>
      <point x="50" y="50" type="curve" smooth="yes"/>
    </contour>
  </outline>
</glyph>
<glyph name="slash" format="1">
  <advance width="502"/>
  <unicode hex="002F"/>
  <outline>
    <contour>
      <point x="494" y="799" type="line"/>
      <point x="486" y="801"/>
      <point x="472" y="803"/>
      <point x="459" y="803" type="curve" smooth="yes"/>
      <point x="446" y="803"/>
      <point x="432" y="801"/>
      <point x="424" y="799" type="curve"/>
      <point x="29" y="-85" type="line"/>
      <point x="37" y="-88"/>
      <point x="51" y="-89"/>
      <point x="65" y="-89" type="curve" smooth="yes"/>
      <point x="78" y="-89"/>
      <point x="90" y="-88"/>
      <point x="99" y="-85" type="curve"/>
    </contour>
  </outline>
</glyph>
<glyph name="one" format="1">
  <advance width="452"/>
  <unicode hex="0031"/>
  <outline>
    <contour>
      <point x="281" y="654" type="line" smooth="yes"/>
      <point x="281" y="673"/>
      <point x="281" y="690"/>
      <point x="281" y="704" type="curve" smooth="yes"/>
      <point x="281" y="747"/>
      <point x="281" y="770"/>
      <point x="286" y="796" type="curve"/>
      <point x="285" y="803"/>
      <point x="282" y="809"/>
      <point x="276" y="816" type="curve"/>
      <point x="57" y="752" type="line"/>
      <point x="55" y="739"/>
      <point x="54" y="717"/>
      <point x="57" y="704" type="curve"/>
      <point x="179" y="717" type="line"/>
      <point x="179" y="174" type="line" smooth="yes"/>
      <point x="179" y="133"/>
      <point x="178" y="88"/>
      <point x="175" y="47" type="curve"/>
      <point x="66" y="36" type="line"/>
      <point x="62" y="23"/>
      <point x="62" y="10"/>
      <point x="66" y="-3" type="curve"/>
      <point x="108" y="-2"/>
      <point x="169" y="-1"/>
      <point x="229" y="-1" type="curve" smooth="yes"/>
      <point x="289" y="-1"/>
      <point x="348" y="-2"/>
      <point x="390" y="-4" type="curve"/>
      <point x="392" y="9"/>
      <point x="393" y="23"/>
      <point x="390" y="36" type="curve"/>
      <point x="281" y="51" type="line"/>
    </contour>
  </outline>
</glyph>
<glyph name="two" format="1">
  <advance width="620"/>
  <unicode hex="0032"/>
  <outline>
    <contour>
      <point x="548" y="0" type="line"/>
      <point x="548" y="23"/>
      <point x="549" y="81"/>
      <point x="550" y="113" type="curve"/>
      <point x="520" y="107"/>
      <point x="476" y="101"/>
      <point x="441" y="99" type="curve"/>
      <point x="173" y="99" type="line"/>
      <point x="378" y="256"/>
      <point x="526" y="434"/>
      <point x="526" y="609" type="curve" smooth="yes"/>
      <point x="526" y="740"/>
      <point x="451" y="819"/>
      <point x="293" y="819" type="curve" smooth="yes"/>
      <point x="178" y="819"/>
      <point x="97" y="762"/>
      <point x="67" y="632" type="curve"/>
      <point x="83" y="607"/>
      <point x="126" y="604"/>
      <point x="177" y="606" type="curve"/>
      <point x="201" y="730"/>
      <point x="237" y="774"/>
      <point x="290" y="774" type="curve" smooth="yes"/>
      <point x="369" y="774"/>
      <point x="406" y="716"/>
      <point x="406" y="612" type="curve" smooth="yes"/>
      <point x="406" y="435"/>
      <point x="323" y="306"/>
      <point x="75" y="76" type="curve"/>
      <point x="75" y="0" type="line"/>
    </contour>
  </outline>
</glyph>
<glyph name="three" format="1">
  <advance width="580"/>
  <unicode hex="0033"/>
  <outline>
    <contour>
      <point x="199" y="24"/>
      <point x="157" y="51"/>
      <point x="138" y="152" type="curve"/>
      <point x="84" y="153"/>
      <point x="52" y="149"/>
      <point x="35" y="131" type="curve"/>
      <point x="35" y="27"/>
      <point x="138" y="-20"/>
      <point x="257" y="-20" type="curve" smooth="yes"/>
      <point x="429" y="-20"/>
      <point x="527" y="81"/>
      <point x="527" y="227" type="curve" smooth="yes"/>
      <point x="527" y="347"/>
      <point x="450" y="415"/>
      <point x="328" y="434" type="curve"/>
      <point x="328" y="437" type="line"/>
      <point x="440" y="470"/>
      <point x="490" y="548"/>
      <point x="490" y="635" type="curve" smooth="yes"/>
      <point x="490" y="742"/>
      <point x="406" y="819"/>
      <point x="272" y="819" type="curve" smooth="yes"/>
      <point x="150" y="819"/>
      <point x="64" y="760"/>
      <point x="47" y="650" type="curve"/>
      <point x="66" y="630"/>
      <point x="92" y="626"/>
      <point x="150" y="627" type="curve"/>
      <point x="163" y="721"/>
      <point x="198" y="778"/>
      <point x="265" y="778" type="curve" smooth="yes"/>
      <point x="325" y="778"/>
      <point x="378" y="731"/>
      <point x="378" y="616" type="curve" smooth="yes"/>
      <point x="378" y="518"/>
      <point x="324" y="456"/>
      <point x="219" y="456" type="curve" smooth="yes"/>
      <point x="189" y="456" type="line"/>
      <point x="181" y="445"/>
      <point x="183" y="414"/>
      <point x="189" y="406" type="curve"/>
      <point x="334" y="406"/>
      <point x="409" y="326"/>
      <point x="409" y="221" type="curve" smooth="yes"/>
      <point x="409" y="87"/>
      <point x="345" y="24"/>
      <point x="263" y="24" type="curve" smooth="yes"/>
    </contour>
  </outline>
</glyph>
<glyph name="seven" format="1">
  <advance width="521"/>
  <unicode hex="0037"/>
  <outline>
    <contour>
      <point x="315" y="796" type="line"/>
      <point x="56" y="796" type="line"/>
      <point x="56" y="773"/>
      <point x="55" y="697"/>
      <point x="54" y="665" type="curve"/>
      <point x="82" y="665" type="line"/>
      <point x="134" y="686"/>
      <point x="217" y="694"/>
      <point x="293" y="697" type="curve"/>
      <point x="444" y="697" type="line"/>
      <point x="136" y="0" type="line"/>
      <point x="258" y="0" type="line"/>
      <point x="507" y="725" type="line"/>
      <point x="507" y="752"/>
      <point x="503" y="775"/>
      <point x="497" y="796" type="curve"/>
    </contour>
  </outline>
</glyph>
<glyph name="question" format="1">
  <advance width="509"/>
  <unicode hex="003F"/>
  <outline>
    <contour>
      <point x="167" y="163" type="line"/>
      <point x="188" y="155"/>
      <point x="199" y="155"/>
      <point x="220" y="163" type="curve"/>
      <point x="211" y="360" type="line"/>
      <point x="420" y="376"/>
      <point x="466" y="487"/>
      <point x="466" y="587" type="curve" smooth="yes"/>
      <point x="466" y="726"/>
      <point x="387" y="819"/>
      <point x="227" y="819" type="curve" smooth="yes"/>
      <point x="128" y="819"/>
      <point x="35" y="771"/>
      <point x="35" y="659" type="curve"/>
      <point x="52" y="641"/>
      <point x="84" y="637"/>
      <point x="138" y="638" type="curve"/>
      <point x="156" y="740"/>
      <point x="191" y="777"/>
      <point x="238" y="777" type="curve" smooth="yes"/>
      <point x="312" y="777"/>
      <point x="348" y="698"/>
      <point x="348" y="593" type="curve" smooth="yes"/>
      <point x="348" y="465"/>
      <point x="304" y="410"/>
      <point x="158" y="408" type="curve" smooth="yes"/>
      <point x="147" y="408" type="line"/>
    </contour>
    <contour>
      <point x="143" y="15"/>
      <point x="171" y="-13"/>
      <point x="206" y="-13" type="curve" smooth="yes"/>
      <point x="241" y="-13"/>
      <point x="269" y="15"/>
      <point x="269" y="50" type="curve" smooth="yes"/>
      <point x="269" y="85"/>
      <point x="240" y="111"/>
      <point x="205" y="111" type="curve" smooth="yes"/>
      <point x="170" y="111"/>
      <point x="143" y="85"/>
      <point x="143" y="50" type="curve" smooth="yes"/>
    </contour>
  </outline>
</glyph>
<glyph name="A" format="1">
  <advance width="740"/>
  <unicode hex="0041"/>
  <outline>
    <contour>
      <point x="122" y="44" type="line"/>
      <point x="211" y="293" type="line"/>
      <point x="471" y="293" type="line"/>
      <point x="559" y="46" type="line"/>
      <point x="476" y="34" type="line"/>
      <point x="472" y="22"/>
      <point x="472" y="10"/>
      <point x="476" y="-2" type="curve"/>
      <point x="518" y="-1"/>
      <point x="568" y="0"/>
      <point x="618" y="0" type="curve" smooth="yes"/>
      <point x="668" y="0"/>
      <point x="717" y="-1"/>
      <point x="759" y="-3" type="curve"/>
      <point x="761" y="9"/>
      <point x="762" y="22"/>
      <point x="759" y="34" type="curve"/>
      <point x="678" y="44" type="line"/>
      <point x="388" y="825" type="line"/>
      <point x="353" y="825" type="line"/>
      <point x="95" y="135" type="line" smooth="yes"/>
      <point x="83" y="103"/>
      <point x="72" y="72"/>
      <point x="55" y="46" type="curve"/>
      <point x="-11" y="34" type="line"/>
      <point x="-15" y="22"/>
      <point x="-15" y="10"/>
      <point x="-11" y="-2" type="curve"/>
      <point x="31" y="-1"/>
      <point x="64" y="0"/>
      <point x="97" y="0" type="curve" smooth="yes"/>
      <point x="129" y="0"/>
      <point x="161" y="-1"/>
      <point x="203" y="-3" type="curve"/>
      <point x="205" y="9"/>
      <point x="206" y="22"/>
      <point x="203" y="34" type="curve"/>
    </contour>
    <contour>
      <point x="344" y="674" type="line"/>
      <point x="354" y="633"/>
      <point x="367" y="589"/>
      <point x="380" y="551" type="curve" smooth="yes"/>
      <point x="453" y="343" type="line"/>
      <point x="229" y="343" type="line"/>
      <point x="304" y="551" type="line" smooth="yes"/>
      <point x="318" y="590"/>
      <point x="333" y="634"/>
      <point x="343" y="674" type="curve"/>
    </contour>
    <contour>
      <point x="370" y="830" type="move" name="top"/>
    </contour>
  </outline>
</glyph>
<glyph name="C" format="1">
  <advance width="761"/>
  <unicode hex="0043"/>
  <outline>
    <contour>
      <point x="632" y="89"/>
      <point x="537" y="46"/>
      <point x="439" y="46" type="curve" smooth="yes"/>
      <point x="281" y="46"/>
      <point x="177" y="199"/>
      <point x="177" y="412" type="curve" smooth="yes"/>
      <point x="177" y="607"/>
      <point x="278" y="771"/>
      <point x="450" y="771" type="curve" smooth="yes"/>
      <point x="502" y="771"/>
      <point x="561" y="765"/>
      <point x="613" y="731" type="curve"/>
      <point x="645" y="564" type="line"/>
      <point x="657" y="561"/>
      <point x="690" y="562"/>
      <point x="702" y="564" type="curve"/>
      <point x="702" y="756" type="line"/>
      <point x="626" y="797"/>
      <point x="548" y="816"/>
      <point x="462" y="816" type="curve" smooth="yes"/>
      <point x="194" y="816"/>
      <point x="53" y="600"/>
      <point x="53" y="395" type="curve" smooth="yes"/>
      <point x="53" y="192"/>
      <point x="174" y="-20"/>
      <point x="440" y="-20" type="curve" smooth="yes"/>
      <point x="553" y="-20"/>
      <point x="646" y="39"/>
      <point x="722" y="110" type="curve"/>
      <point x="717" y="125"/>
      <point x="711" y="138"/>
      <point x="696" y="148" type="curve"/>
    </contour>
  </outline>
</glyph>
<glyph name="D" format="1">
  <advance width="835"/>
  <unicode hex="0044"/>
  <outline>
    <contour>
      <point x="74" y="-1"/>
      <point x="103" y="-1"/>
      <point x="132" y="-1" type="curve" smooth="yes"/>
      <point x="219" y="-1"/>
      <point x="309" y="-4"/>
      <point x="418" y="-4" type="curve" smooth="yes"/>
      <point x="655" y="-4"/>
      <point x="779" y="186"/>
      <point x="779" y="418" type="curve" smooth="yes"/>
      <point x="779" y="648"/>
      <point x="651" y="809"/>
      <point x="381" y="809" type="curve" smooth="yes"/>
      <point x="334" y="809"/>
      <point x="211" y="798"/>
      <point x="99" y="798" type="curve" smooth="yes"/>
      <point x="83" y="798"/>
      <point x="67" y="798"/>
      <point x="52" y="799" type="curve"/>
      <point x="50" y="787"/>
      <point x="49" y="774"/>
      <point x="52" y="762" type="curve"/>
      <point x="133" y="752" type="line"/>
      <point x="133" y="163" type="line" smooth="yes"/>
      <point x="133" y="126"/>
      <point x="133" y="84"/>
      <point x="129" y="46" type="curve"/>
      <point x="46" y="34" type="line"/>
      <point x="42" y="22"/>
      <point x="42" y="10"/>
      <point x="46" y="-2" type="curve"/>
    </contour>
    <contour>
      <point x="314" y="44"/>
      <point x="273" y="47"/>
      <point x="240" y="47" type="curve"/>
      <point x="240" y="633" type="line" smooth="yes"/>
      <point x="240" y="670"/>
      <point x="240" y="716"/>
      <point x="244" y="754" type="curve"/>
      <point x="276" y="760"/>
      <point x="308" y="762"/>
      <point x="340" y="762" type="curve" smooth="yes"/>
      <point x="352" y="762"/>
      <point x="365" y="762"/>
      <point x="377" y="761" type="curve" smooth="yes"/>
      <point x="564" y="753"/>
      <point x="662" y="621"/>
      <point x="662" y="412" type="curve" smooth="yes"/>
      <point x="662" y="163"/>
      <point x="566" y="44"/>
      <point x="380" y="44" type="curve" smooth="yes"/>
    </contour>
  </outline>
</glyph>
<glyph name="E" format="1">
  <advance width="679"/>
  <unicode hex="0045"/>
  <outline>
    <contour>
      <point x="133" y="162" type="line" smooth="yes"/>
      <point x="133" y="124"/>
      <point x="132" y="82"/>
      <point x="129" y="44" type="curve"/>
      <point x="46" y="33" type="line"/>
      <point x="42" y="21"/>
      <point x="42" y="9"/>
      <point x="46" y="-3" type="curve"/>
      <point x="189" y="0" type="line"/>
      <point x="623" y="0" type="line"/>
      <point x="624" y="232" type="line"/>
      <point x="612" y="234"/>
      <point x="599" y="235"/>
      <point x="587" y="232" type="curve"/>
      <point x="540" y="51" type="line"/>
      <point x="240" y="51" type="line"/>
      <point x="240" y="394" type="line"/>
      <point x="401" y="391" type="line"/>
      <point x="423" y="287" type="line"/>
      <point x="435" y="283"/>
      <point x="447" y="283"/>
      <point x="459" y="287" type="curve"/>
      <point x="457" y="329"/>
      <point x="456" y="373"/>
      <point x="456" y="417" type="curve" smooth="yes"/>
      <point x="456" y="461"/>
      <point x="457" y="504"/>
      <point x="460" y="546" type="curve"/>
      <point x="448" y="548"/>
      <point x="435" y="549"/>
      <point x="423" y="546" type="curve"/>
      <point x="400" y="448" type="line"/>
      <point x="240" y="445" type="line"/>
      <point x="240" y="745" type="line"/>
      <point x="510" y="745" type="line"/>
      <point x="557" y="564" type="line"/>
      <point x="569" y="561"/>
      <point x="582" y="562"/>
      <point x="594" y="564" type="curve"/>
      <point x="593" y="796" type="line"/>
      <point x="189" y="796" type="line"/>
      <point x="52" y="799" type="line"/>
      <point x="48" y="787"/>
      <point x="48" y="775"/>
      <point x="52" y="763" type="curve"/>
      <point x="133" y="752" type="line"/>
    </contour>
    <contour>
      <point x="364" y="830" type="move" name="top"/>
    </contour>
  </outline>
</glyph>
<glyph name="L" format="1">
  <advance width="679"/>
  <unicode hex="004C"/>
  <outline>
    <contour>
      <point x="189" y="0" type="line"/>
      <point x="653" y="0" type="line"/>
      <point x="654" y="232" type="line"/>
      <point x="642" y="234"/>
      <point x="629" y="235"/>
      <point x="617" y="232" type="curve"/>
      <point x="570" y="51" type="line"/>
      <point x="240" y="51" type="line"/>
      <point x="240" y="633" type="line" smooth="yes"/>
      <point x="240" y="670"/>
      <point x="240" y="712"/>
      <point x="244" y="750" type="curve"/>
      <point x="327" y="762" type="line"/>
      <point x="331" y="774"/>
      <point x="331" y="786"/>
      <point x="327" y="798" type="curve"/>
      <point x="284" y="796"/>
      <point x="237" y="795"/>
      <point x="189" y="795" type="curve" smooth="yes"/>
      <point x="141" y="795"/>
      <point x="93" y="796"/>
      <point x="52" y="799" type="curve"/>
      <point x="50" y="787"/>
      <point x="49" y="774"/>
      <point x="52" y="762" type="curve"/>
      <point x="133" y="752" type="line"/>
      <point x="133" y="162" type="line" smooth="yes"/>
      <point x="133" y="124"/>
      <point x="132" y="82"/>
      <point x="129" y="44" type="curve"/>
      <point x="46" y="33" type="line"/>
      <point x="42" y="21"/>
      <point x="42" y="9"/>
      <point x="46" y="-3" type="curve"/>
    </contour>
  </outline>
</glyph>
<glyph name="M" format="1">
  <advance width="1050"/>
  <unicode hex="004D"/>
  <outline>
    <contour>
      <point x="808" y="163" type="line" smooth="yes"/>
      <point x="808" y="126"/>
      <point x="808" y="84"/>
      <point x="804" y="46" type="curve"/>
      <point x="721" y="34" type="line"/>
      <point x="716" y="24"/>
      <point x="718" y="11"/>
      <point x="721" y="-2" type="curve"/>
      <point x="763" y="-1"/>
      <point x="811" y="0"/>
      <point x="859" y="0" type="curve" smooth="yes"/>
      <point x="907" y="0"/>
      <point x="954" y="-1"/>
      <point x="996" y="-3" type="curve"/>
      <point x="998" y="9"/>
      <point x="999" y="22"/>
      <point x="996" y="34" type="curve"/>
      <point x="915" y="44" type="line"/>
      <point x="915" y="633" type="line" smooth="yes"/>
      <point x="915" y="670"/>
      <point x="915" y="712"/>
      <point x="919" y="750" type="curve"/>
      <point x="1002" y="762" type="line"/>
      <point x="1006" y="774"/>
      <point x="1006" y="786"/>
      <point x="1002" y="798" type="curve"/>
      <point x="953" y="797"/>
      <point x="899" y="795"/>
      <point x="845" y="795" type="curve" smooth="yes"/>
      <point x="822" y="795"/>
      <point x="798" y="795"/>
      <point x="775" y="796" type="curve"/>
      <point x="518" y="138" type="line"/>
      <point x="267" y="796" type="line"/>
      <point x="47" y="796" type="line"/>
      <point x="43" y="784"/>
      <point x="43" y="774"/>
      <point x="47" y="762" type="curve"/>
      <point x="130" y="750" type="line"/>
      <point x="134" y="712"/>
      <point x="134" y="670"/>
      <point x="134" y="633" type="curve" smooth="yes"/>
      <point x="134" y="44" type="line"/>
      <point x="43" y="34" type="line"/>
      <point x="40" y="22"/>
      <point x="41" y="9"/>
      <point x="43" y="-3" type="curve"/>
      <point x="84" y="-1"/>
      <point x="124" y="0"/>
      <point x="164" y="0" type="curve" smooth="yes"/>
      <point x="204" y="0"/>
      <point x="243" y="-1"/>
      <point x="286" y="-2" type="curve"/>
      <point x="290" y="10"/>
      <point x="290" y="22"/>
      <point x="286" y="34" type="curve"/>
      <point x="193" y="46" type="line"/>
      <point x="189" y="84"/>
      <point x="189" y="126"/>
      <point x="189" y="163" type="curve" smooth="yes"/>
      <point x="189" y="713" type="line"/>
      <point x="480" y="-30" type="line"/>
      <point x="506" y="-30" type="line"/>
      <point x="808" y="738" type="line"/>
    </contour>
  </outline>
</glyph>
<glyph name="O" format="1">
  <advance width="906"/>
  <unicode hex="004F"/>
  <outline>
    <contour>
      <point x="217" y="816"/>
      <point x="52" y="617"/>
      <point x="52" y="386" type="curve" smooth="yes"/>
      <point x="52" y="186"/>
      <point x="184" y="-20"/>
      <point x="452" y="-20" type="curve" smooth="yes"/>
      <point x="690" y="-20"/>
      <point x="853" y="173"/>
      <point x="853" y="408" type="curve" smooth="yes"/>
      <point x="853" y="610"/>
      <point x="722" y="816"/>
      <point x="452" y="816" type="curve" smooth="yes"/>
    </contour>
    <contour>
      <point x="256" y="35"/>
      <point x="172" y="214"/>
      <point x="172" y="411" type="curve" smooth="yes"/>
      <point x="172" y="597"/>
      <point x="258" y="761"/>
      <point x="451" y="761" type="curve" smooth="yes"/>
      <point x="648" y="761"/>
      <point x="733" y="598"/>
      <point x="733" y="412" type="curve" smooth="yes"/>
      <point x="733" y="216"/>
      <point x="647" y="35"/>
      <point x="451" y="35" type="curve" smooth="yes"/>
    </contour>
    <contour>
      <point x="452" y="830" type="move" name="top"/>
    </contour>
  </outline>
</glyph>
<glyph name="R" format="1">
  <advance width="720"/>
  <unicode hex="0052"/>
  <outline>
    <contour>
      <point x="50" y="787"/>
      <point x="49" y="774"/>
      <point x="52" y="762" type="curve"/>
      <point x="133" y="752" type="line"/>
      <point x="133" y="163" type="line" smooth="yes"/>
      <point x="133" y="126"/>
      <point x="133" y="84"/>
      <point x="129" y="46" type="curve"/>
      <point x="46" y="34" type="line"/>
      <point x="42" y="22"/>
      <point x="42" y="10"/>
      <point x="46" y="-2" type="curve"/>
      <point x="88" y="-1"/>
      <point x="139" y="0"/>
      <point x="189" y="0" type="curve" smooth="yes"/>
      <point x="239" y="0"/>
      <point x="289" y="-1"/>
      <point x="331" y="-3" type="curve"/>
      <point x="333" y="9"/>
      <point x="334" y="22"/>
      <point x="331" y="34" type="curve"/>
      <point x="240" y="44" type="line"/>
      <point x="240" y="368" type="line"/>
      <point x="275" y="364"/>
      <point x="311" y="362"/>
      <point x="343" y="362" type="curve" smooth="yes"/>
      <point x="357" y="362" type="line"/>
      <point x="376" y="340"/>
      <point x="395" y="310"/>
      <point x="414" y="274" type="curve" smooth="yes"/>
      <point x="565" y="0" type="line"/>
      <point x="735" y="0" type="line"/>
      <point x="737" y="12"/>
      <point x="738" y="25"/>
      <point x="735" y="37" type="curve"/>
      <point x="663" y="47" type="line"/>
      <point x="643" y="66"/>
      <point x="626" y="109"/>
      <point x="464" y="383" type="curve"/>
      <point x="558" y="417"/>
      <point x="627" y="489"/>
      <point x="627" y="578" type="curve" smooth="yes"/>
      <point x="627" y="711"/>
      <point x="560" y="807"/>
      <point x="345" y="807" type="curve" smooth="yes"/>
      <point x="207" y="807"/>
      <point x="139" y="798"/>
      <point x="52" y="799" type="curve"/>
    </contour>
    <contour>
      <point x="240" y="633" type="line" smooth="yes"/>
      <point x="240" y="670"/>
      <point x="242" y="720"/>
      <point x="246" y="758" type="curve"/>
      <point x="262" y="761"/>
      <point x="296" y="765"/>
      <point x="320" y="765" type="curve" smooth="yes"/>
      <point x="461" y="765"/>
      <point x="506" y="690"/>
      <point x="506" y="583" type="curve" smooth="yes"/>
      <point x="506" y="506"/>
      <point x="473" y="405"/>
      <point x="330" y="405" type="curve" smooth="yes"/>
      <point x="305" y="405"/>
      <point x="271" y="405"/>
      <point x="240" y="409" type="curve"/>
    </contour>
  </outline>
</glyph>
<glyph name="T" format="1">
  <advance width="746"/>
  <unicode hex="0054"/>
  <outline>
    <contour>
      <point x="27" y="796" type="line"/>
      <point x="26" y="564" type="line"/>
      <point x="38" y="562"/>
      <point x="51" y="561"/>
      <point x="63" y="564" type="curve"/>
      <point x="110" y="745" type="line"/>
      <point x="320" y="745" type="line"/>
      <point x="320" y="163" type="line" smooth="yes"/>
      <point x="320" y="126"/>
      <point x="320" y="84"/>
      <point x="316" y="46" type="curve"/>
      <point x="223" y="34" type="line"/>
      <point x="219" y="22"/>
      <point x="219" y="10"/>
      <point x="223" y="-2" type="curve"/>
      <point x="265" y="-1"/>
      <point x="321" y="0"/>
      <point x="376" y="0" type="curve" smooth="yes"/>
      <point x="431" y="0"/>
      <point x="486" y="-1"/>
      <point x="528" y="-3" type="curve"/>
      <point x="530" y="9"/>
      <point x="531" y="22"/>
      <point x="528" y="34" type="curve"/>
      <point x="427" y="44" type="line"/>
      <point x="427" y="745" type="line"/>
      <point x="635" y="745" type="line"/>
      <point x="682" y="564" type="line"/>
      <point x="694" y="561"/>
      <point x="707" y="562"/>
      <point x="719" y="564" type="curve"/>
      <point x="718" y="796" type="line"/>
    </contour>
  </outline>
</glyph>
<glyph name="W" format="1">
  <advance width="1099"/>
  <unicode hex="0057"/>
  <outline>
    <contour>
      <point x="788" y="146" type="line"/>
      <point x="776" y="204"/>
      <point x="759" y="260"/>
      <point x="742" y="315" type="curve"/>
      <point x="600" y="750" type="line"/>
      <point x="683" y="762" type="line"/>
      <point x="687" y="774"/>
      <point x="687" y="786"/>
      <point x="683" y="798" type="curve"/>
      <point x="640" y="796"/>
      <point x="591" y="795"/>
      <point x="542" y="795" type="curve" smooth="yes"/>
      <point x="493" y="795"/>
      <point x="444" y="796"/>
      <point x="403" y="799" type="curve"/>
      <point x="401" y="787"/>
      <point x="400" y="774"/>
      <point x="403" y="762" type="curve"/>
      <point x="484" y="752" type="line"/>
      <point x="532" y="611" type="line"/>
      <point x="422" y="307" type="line" smooth="yes"/>
      <point x="401" y="250"/>
      <point x="381" y="194"/>
      <point x="364" y="138" type="curve"/>
      <point x="362" y="138" type="line"/>
      <point x="349" y="195"/>
      <point x="334" y="253"/>
      <point x="319" y="307" type="curve"/>
      <point x="187" y="750" type="line"/>
      <point x="270" y="762" type="line"/>
      <point x="274" y="774"/>
      <point x="274" y="786"/>
      <point x="270" y="798" type="curve"/>
      <point x="227" y="796"/>
      <point x="176" y="795"/>
      <point x="125" y="795" type="curve" smooth="yes"/>
      <point x="74" y="795"/>
      <point x="23" y="796"/>
      <point x="-18" y="799" type="curve"/>
      <point x="-20" y="787"/>
      <point x="-21" y="774"/>
      <point x="-18" y="762" type="curve"/>
      <point x="63" y="752" type="line"/>
      <point x="322" y="-30" type="line"/>
      <point x="349" y="-31" type="line"/>
      <point x="559" y="530" type="line"/>
      <point x="751" y="-30" type="line"/>
      <point x="777" y="-30" type="line"/>
      <point x="1004" y="661" type="line"/>
      <point x="1016" y="693"/>
      <point x="1027" y="724"/>
      <point x="1044" y="750" type="curve"/>
      <point x="1110" y="762" type="line"/>
      <point x="1110" y="798" type="line"/>
      <point x="1067" y="796"/>
      <point x="1034" y="795"/>
      <point x="1002" y="795" type="curve" smooth="yes"/>
      <point x="969" y="795"/>
      <point x="937" y="796"/>
      <point x="896" y="799" type="curve"/>
      <point x="896" y="762" type="line"/>
      <point x="977" y="752" type="line"/>
      <point x="838" y="312" type="line" smooth="yes"/>
      <point x="823" y="263"/>
      <point x="804" y="205"/>
      <point x="790" y="146" type="curve"/>
    </contour>
  </outline>
</glyph>
<glyph name="bracketleft" format="1">
  <advance width="314"/>
  <unicode hex="005B"/>
  <outline>
    <contour>
      <point x="89" y="900" type="line"/>
      <point x="89" y="-182" type="line"/>
      <point x="299" y="-182" type="line"/>
      <point x="304" y="-165"/>
      <point x="305" y="-148"/>
      <point x="299" y="-131" type="curve"/>
      <point x="176" y="-131" type="line"/>
      <point x="176" y="849" type="line"/>
      <point x="299" y="849" type="line"/>
      <point x="304" y="866"/>
      <point x="305" y="883"/>
      <point x="299" y="900" type="curve"/>
    </contour>
  </outline>
</glyph>
<glyph name="grave" format="1">
  <advance width="221"/>
  <unicode hex="0060"/>
  <outline>
    <contour>
      <point x="73" y="570" type="line"/>
      <point x="88" y="574"/>
      <point x="107" y="581"/>
      <point x="116" y="587" type="curve"/>
      <point x="32" y="761" type="line"/>
      <point x="10" y="775"/>
      <point x="-16" y="764"/>
      <point x="-55" y="724" type="curve"/>
    </contour>
    <contour>
      <point x="81" y="537" type="move" name="_top"/>
    </contour>
  </outline>
</glyph>
<glyph name="b" format="1">
  <advance width="603"/>
  <unicode hex="0062"/>
  <outline>
    <contour>
      <point x="172" y="634" type="line" smooth="yes"/>
      <point x="172" y="724"/>
      <point x="172" y="770"/>
      <point x="177" y="796" type="curve"/>
      <point x="176" y="803"/>
      <point x="173" y="809"/>
      <point x="167" y="816" type="curve"/>
      <point x="109" y="807"/>
      <point x="50" y="799"/>
      <point x="-5" y="795" type="curve"/>
      <point x="-7" y="782"/>
      <point x="-8" y="770"/>
      <point x="-5" y="757" type="curve"/>
      <point x="77" y="747" type="line"/>
      <point x="77" y="92" type="line"/>
      <point x="87" y="-18" type="line"/>
      <point x="99" y="-21"/>
      <point x="107" y="-20"/>
      <point x="119" y="-18" type="curve"/>
      <point x="140" y="50" type="line"/>
      <point x="180" y="0"/>
      <point x="240" y="-20"/>
      <point x="294" y="-20" type="curve" smooth="yes"/>
      <point x="438" y="-20"/>
      <point x="559" y="90"/>
      <point x="559" y="284" type="curve" smooth="yes"/>
      <point x="559" y="448"/>
      <point x="483" y="554"/>
      <point x="353" y="554" type="curve" smooth="yes"/>
      <point x="279" y="554"/>
      <point x="220" y="519"/>
      <point x="172" y="471" type="curve"/>
    </contour>
    <contour>
      <point x="251" y="35"/>
      <point x="217" y="52"/>
      <point x="172" y="104" type="curve"/>
      <point x="172" y="410" type="line"/>
      <point x="214" y="465"/>
      <point x="275" y="494"/>
      <point x="319" y="494" type="curve" smooth="yes"/>
      <point x="395" y="494"/>
      <point x="458" y="424"/>
      <point x="458" y="287" type="curve"/>
      <point x="459" y="276"/>
      <point x="459" y="265"/>
      <point x="459" y="255" type="curve" smooth="yes"/>
      <point x="459" y="109"/>
      <point x="394" y="35"/>
      <point x="316" y="35" type="curve" smooth="yes"/>
    </contour>
  </outline>
</glyph>
<glyph name="d" format="1">
  <advance width="625"/>
  <unicode hex="0064"/>
  <outline>
    <contour>
      <point x="526" y="634" type="line" smooth="yes"/>
      <point x="526" y="724"/>
      <point x="526" y="770"/>
      <point x="531" y="796" type="curve"/>
      <point x="530" y="803"/>
      <point x="527" y="809"/>
      <point x="521" y="816" type="curve"/>
      <point x="463" y="807"/>
      <point x="404" y="799"/>
      <point x="349" y="795" type="curve"/>
      <point x="347" y="782"/>
      <point x="346" y="770"/>
      <point x="349" y="757" type="curve"/>
      <point x="428" y="747" type="line"/>
      <point x="431" y="715"/>
      <point x="431" y="686"/>
      <point x="431" y="649" type="curve" smooth="yes"/>
      <point x="431" y="515" type="line"/>
      <point x="394" y="543"/>
      <point x="339" y="554"/>
      <point x="297" y="554" type="curve" smooth="yes"/>
      <point x="165" y="554"/>
      <point x="44" y="439"/>
      <point x="44" y="245" type="curve" smooth="yes"/>
      <point x="44" y="81"/>
      <point x="131" y="-21"/>
      <point x="245" y="-21" type="curve" smooth="yes"/>
      <point x="324" y="-21"/>
      <point x="396" y="17"/>
      <point x="441" y="69" type="curve"/>
      <point x="446" y="5" type="line"/>
      <point x="448" y="-4"/>
      <point x="452" y="-10"/>
      <point x="456" y="-14" type="curve"/>
      <point x="506" y="-7"/>
      <point x="558" y="-2"/>
      <point x="608" y="0" type="curve"/>
      <point x="610" y="13"/>
      <point x="611" y="24"/>
      <point x="608" y="38" type="curve"/>
      <point x="529" y="48" type="line"/>
      <point x="526" y="75"/>
      <point x="526" y="106"/>
      <point x="526" y="142" type="curve"/>
    </contour>
    <contour>
      <point x="340" y="500"/>
      <point x="395" y="485"/>
      <point x="431" y="444" type="curve"/>
      <point x="431" y="124" type="line"/>
      <point x="389" y="68"/>
      <point x="323" y="39"/>
      <point x="279" y="39" type="curve" smooth="yes"/>
      <point x="203" y="39"/>
      <point x="146" y="105"/>
      <point x="146" y="242" type="curve" smooth="yes"/>
      <point x="146" y="406"/>
      <point x="204" y="500"/>
      <point x="289" y="500" type="curve" smooth="yes"/>
    </contour>
  </outline>
</glyph>
<glyph name="e" format="1">
  <advance width="535"/>
  <unicode hex="0065"/>
  <outline>
    <contour>
      <point x="461" y="282" type="line"/>
      <point x="469" y="283"/>
      <point x="474" y="285"/>
      <point x="482" y="291" type="curve"/>
      <point x="482" y="431"/>
      <point x="436" y="554"/>
      <point x="285" y="554" type="curve" smooth="yes"/>
      <point x="169" y="554"/>
      <point x="45" y="460"/>
      <point x="45" y="267" type="curve" smooth="yes"/>
      <point x="45" y="89"/>
      <point x="117" y="-20"/>
      <point x="289" y="-20" type="curve" smooth="yes"/>
      <point x="362" y="-20"/>
      <point x="418" y="6"/>
      <point x="464" y="57" type="curve"/>
      <point x="458" y="74"/>
      <point x="454" y="80"/>
      <point x="441" y="88" type="curve"/>
      <point x="403" y="56"/>
      <point x="348" y="27"/>
      <point x="300" y="27" type="curve" smooth="yes"/>
      <point x="179" y="27"/>
      <point x="142" y="138"/>
      <point x="147" y="282" type="curve"/>
    </contour>
    <contour>
      <point x="348" y="514"/>
      <point x="380" y="436"/>
      <point x="380" y="331" type="curve"/>
      <point x="373" y="329"/>
      <point x="332" y="322"/>
      <point x="274" y="322" type="curve" smooth="yes"/>
      <point x="150" y="322" type="line"/>
      <point x="161" y="433"/>
      <point x="213" y="514"/>
      <point x="283" y="514" type="curve" smooth="yes"/>
    </contour>
    <contour>
      <point x="285" y="570" type="move" name="top"/>
    </contour>
  </outline>
</glyph>
<glyph name="g" format="1">
  <advance width="524"/>
  <unicode hex="0067"/>
  <outline>
    <contour>
      <point x="69" y="-23"/>
      <point x="26" y="-69"/>
      <point x="26" y="-127" type="curve" smooth="yes"/>
      <point x="26" y="-208"/>
      <point x="104" y="-263"/>
      <point x="242" y="-263" type="curve" smooth="yes"/>
      <point x="403" y="-263"/>
      <point x="509" y="-192"/>
      <point x="509" y="-56" type="curve" smooth="yes"/>
      <point x="509" y="19"/>
      <point x="469" y="69"/>
      <point x="390" y="79" type="curve"/>
      <point x="141" y="104" type="line"/>
      <point x="175" y="193" type="line"/>
      <point x="199" y="185"/>
      <point x="225" y="181"/>
      <point x="256" y="181" type="curve" smooth="yes"/>
      <point x="365" y="181"/>
      <point x="469" y="257"/>
      <point x="469" y="365" type="curve" smooth="yes"/>
      <point x="469" y="418"/>
      <point x="449" y="460"/>
      <point x="419" y="490" type="curve"/>
      <point x="431" y="522"/>
      <point x="462" y="562"/>
      <point x="519" y="567" type="curve"/>
      <point x="522" y="585"/>
      <point x="523" y="599"/>
      <point x="523" y="611" type="curve" smooth="yes"/>
      <point x="523" y="638"/>
      <point x="515" y="650"/>
      <point x="497" y="654" type="curve"/>
      <point x="426" y="650"/>
      <point x="398" y="592"/>
      <point x="395" y="512" type="curve"/>
      <point x="355" y="540"/>
      <point x="305" y="554"/>
      <point x="256" y="554" type="curve" smooth="yes"/>
      <point x="154" y="554"/>
      <point x="48" y="484"/>
      <point x="48" y="365" type="curve" smooth="yes"/>
      <point x="48" y="309"/>
      <point x="76" y="244"/>
      <point x="141" y="208" type="curve"/>
      <point x="74" y="97" type="line"/>
      <point x="74" y="64"/>
      <point x="102" y="15"/>
      <point x="146" y="9" type="curve"/>
      <point x="333" y="-8" type="line" smooth="yes"/>
      <point x="414" y="-15"/>
      <point x="428" y="-51"/>
      <point x="428" y="-114" type="curve" smooth="yes"/>
      <point x="428" y="-180"/>
      <point x="352" y="-215"/>
      <point x="260" y="-215" type="curve" smooth="yes"/>
      <point x="167" y="-215"/>
      <point x="102" y="-174"/>
      <point x="102" y="-109" type="curve" smooth="yes"/>
      <point x="102" y="-71"/>
      <point x="113" y="-46"/>
      <point x="135" y="-28" type="curve"/>
      <point x="131" y="-20"/>
      <point x="126" y="-14"/>
      <point x="120" y="-11" type="curve"/>
    </contour>
    <contour>
      <point x="138" y="449"/>
      <point x="188" y="514"/>
      <point x="257" y="514" type="curve" smooth="yes"/>
      <point x="330" y="514"/>
      <point x="378" y="449"/>
      <point x="378" y="365" type="curve" smooth="yes"/>
      <point x="378" y="289"/>
      <point x="330" y="225"/>
      <point x="257" y="225" type="curve" smooth="yes"/>
      <point x="182" y="225"/>
      <point x="138" y="291"/>
      <point x="138" y="365" type="curve" smooth="yes"/>
    </contour>
  </outline>
</glyph>
<glyph name="h" format="1">
  <advance width="621"/>
  <unicode hex="0068"/>
  <outline>
    <contour>
      <point x="102" y="174" type="line" smooth="yes"/>
      <point x="102" y="133"/>
      <point x="101" y="88"/>
      <point x="98" y="47" type="curve"/>
      <point x="19" y="36" type="line"/>
      <point x="15" y="23"/>
      <point x="15" y="10"/>
      <point x="19" y="-3" type="curve"/>
      <point x="61" y="-2"/>
      <point x="105" y="-1"/>
      <point x="149" y="-1" type="curve" smooth="yes"/>
      <point x="192" y="-1"/>
      <point x="235" y="-2"/>
      <point x="277" y="-4" type="curve"/>
      <point x="279" y="9"/>
      <point x="280" y="23"/>
      <point x="277" y="36" type="curve"/>
      <point x="196" y="51" type="line"/>
      <point x="196" y="383" type="line"/>
      <point x="241" y="456"/>
      <point x="301" y="492"/>
      <point x="349" y="492" type="curve" smooth="yes"/>
      <point x="412" y="492"/>
      <point x="430" y="449"/>
      <point x="430" y="360" type="curve" smooth="yes"/>
      <point x="430" y="174" type="line" smooth="yes"/>
      <point x="430" y="133"/>
      <point x="429" y="88"/>
      <point x="426" y="47" type="curve"/>
      <point x="347" y="36" type="line"/>
      <point x="343" y="23"/>
      <point x="343" y="10"/>
      <point x="347" y="-3" type="curve"/>
      <point x="389" y="-2"/>
      <point x="433" y="-1"/>
      <point x="477" y="-1" type="curve" smooth="yes"/>
      <point x="520" y="-1"/>
      <point x="563" y="-2"/>
      <point x="605" y="-4" type="curve"/>
      <point x="607" y="9"/>
      <point x="608" y="23"/>
      <point x="605" y="36" type="curve"/>
      <point x="524" y="51" type="line"/>
      <point x="524" y="410" type="line" smooth="yes"/>
      <point x="524" y="520"/>
      <point x="443" y="547"/>
      <point x="374" y="547" type="curve" smooth="yes"/>
      <point x="303" y="547"/>
      <point x="241" y="507"/>
      <point x="196" y="445" type="curve"/>
      <point x="196" y="634" type="line" smooth="yes"/>
      <point x="196" y="724"/>
      <point x="196" y="770"/>
      <point x="201" y="796" type="curve"/>
      <point x="200" y="803"/>
      <point x="197" y="809"/>
      <point x="191" y="816" type="curve"/>
      <point x="133" y="807"/>
      <point x="75" y="799"/>
      <point x="20" y="795" type="curve"/>
      <point x="18" y="782"/>
      <point x="17" y="770"/>
      <point x="20" y="757" type="curve"/>
      <point x="99" y="747" type="line"/>
      <point x="102" y="715"/>
      <point x="102" y="686"/>
      <point x="102" y="649" type="curve"/>
    </contour>
  </outline>
</glyph>
<glyph name="j" format="1">
  <advance width="278"/>
  <unicode hex="006A"/>
  <outline>
    <contour>
      <point x="104" y="-43" type="line" smooth="yes"/>
      <point x="104" y="-198"/>
      <point x="92" y="-255"/>
      <point x="60" y="-255" type="curve" smooth="yes"/>
      <point x="43" y="-255"/>
      <point x="36" y="-228"/>
      <point x="29" y="-184" type="curve"/>
      <point x="19" y="-182"/>
      <point x="9" y="-181"/>
      <point x="0" y="-181" type="curve" smooth="yes"/>
      <point x="-29" y="-181"/>
      <point x="-52" y="-192"/>
      <point x="-68" y="-215" type="curve"/>
      <point x="-68" y="-265"/>
      <point x="-39" y="-290"/>
      <point x="43" y="-290" type="curve" smooth="yes"/>
      <point x="157" y="-290"/>
      <point x="199" y="-142"/>
      <point x="199" y="10" type="curve" smooth="yes"/>
      <point x="199" y="372" type="line" smooth="yes"/>
      <point x="199" y="462"/>
      <point x="199" y="508"/>
      <point x="204" y="534" type="curve"/>
      <point x="203" y="541"/>
      <point x="200" y="547"/>
      <point x="194" y="554" type="curve"/>
      <point x="136" y="545"/>
      <point x="67" y="537"/>
      <point x="12" y="533" type="curve"/>
      <point x="10" y="520"/>
      <point x="9" y="508"/>
      <point x="12" y="495" type="curve"/>
      <point x="101" y="485" type="line"/>
      <point x="104" y="453"/>
      <point x="104" y="424"/>
      <point x="104" y="387" type="curve" smooth="yes"/>
    </contour>
    <contour>
      <point x="62" y="695"/>
      <point x="99" y="675"/>
      <point x="139" y="685" type="curve" smooth="yes"/>
      <point x="158" y="689"/>
      <point x="178" y="696"/>
      <point x="189" y="709" type="curve" smooth="yes"/>
      <point x="200" y="723"/>
      <point x="200" y="745"/>
      <point x="196" y="764" type="curve"/>
      <point x="187" y="798"/>
      <point x="148" y="818"/>
      <point x="109" y="808" type="curve" smooth="yes"/>
      <point x="92" y="804"/>
      <point x="72" y="796"/>
      <point x="62" y="784" type="curve" smooth="yes"/>
      <point x="49" y="769"/>
      <point x="49" y="747"/>
      <point x="53" y="729" type="curve" smooth="yes"/>
    </contour>
  </outline>
</glyph>
<glyph name="n" format="1">
  <advance width="637"/>
  <unicode hex="006E"/>
  <outline>
    <contour>
      <point x="446" y="174" type="line" smooth="yes"/>
      <point x="446" y="133"/>
      <point x="445" y="88"/>
      <point x="442" y="47" type="curve"/>
      <point x="363" y="36" type="line"/>
      <point x="359" y="23"/>
      <point x="359" y="10"/>
      <point x="363" y="-3" type="curve"/>
      <point x="405" y="-2"/>
      <point x="449" y="-1"/>
      <point x="493" y="-1" type="curve" smooth="yes"/>
      <point x="537" y="-1"/>
      <point x="580" y="-2"/>
      <point x="622" y="-4" type="curve"/>
      <point x="624" y="9"/>
      <point x="625" y="23"/>
      <point x="622" y="36" type="curve"/>
      <point x="541" y="51" type="line"/>
      <point x="541" y="407" type="line" smooth="yes"/>
      <point x="541" y="507"/>
      <point x="488" y="554"/>
      <point x="386" y="554" type="curve" smooth="yes"/>
      <point x="315" y="554"/>
      <point x="253" y="507"/>
      <point x="208" y="445" type="curve"/>
      <point x="208" y="503"/>
      <point x="208" y="508"/>
      <point x="213" y="534" type="curve"/>
      <point x="212" y="541"/>
      <point x="209" y="547"/>
      <point x="203" y="554" type="curve"/>
      <point x="145" y="545"/>
      <point x="86" y="537"/>
      <point x="31" y="533" type="curve"/>
      <point x="29" y="520"/>
      <point x="28" y="508"/>
      <point x="31" y="495" type="curve"/>
      <point x="110" y="485" type="line"/>
      <point x="112" y="474"/>
      <point x="113" y="464"/>
      <point x="113" y="448" type="curve" smooth="yes"/>
      <point x="113" y="174" type="line" smooth="yes"/>
      <point x="113" y="133"/>
      <point x="112" y="88"/>
      <point x="109" y="47" type="curve"/>
      <point x="30" y="36" type="line"/>
      <point x="26" y="23"/>
      <point x="26" y="10"/>
      <point x="30" y="-3" type="curve"/>
      <point x="72" y="-2"/>
      <point x="116" y="-1"/>
      <point x="160" y="-1" type="curve" smooth="yes"/>
      <point x="204" y="-1"/>
      <point x="247" y="-2"/>
      <point x="289" y="-4" type="curve"/>
      <point x="291" y="9"/>
      <point x="292" y="23"/>
      <point x="289" y="36" type="curve"/>
      <point x="208" y="51" type="line"/>
      <point x="208" y="385" type="line"/>
      <point x="255" y="455"/>
      <point x="309" y="496"/>
      <point x="357" y="496" type="curve" smooth="yes"/>
      <point x="420" y="496"/>
      <point x="446" y="462"/>
      <point x="446" y="357" type="curve"/>
    </contour>
    <contour>
      <point x="322" y="570" type="move" name="top"/>
    </contour>
  </outline>
</glyph>
<glyph name="t" format="1">
  <advance width="356"/>
  <unicode hex="0074"/>
  <outline>
    <contour>
      <point x="190" y="624" type="line"/>
      <point x="184" y="626"/>
      <point x="176" y="627"/>
      <point x="169" y="627" type="curve" smooth="yes"/>
      <point x="161" y="627"/>
      <point x="153" y="626"/>
      <point x="147" y="624" type="curve"/>
      <point x="124" y="556"/>
      <point x="102" y="515"/>
      <point x="24" y="501" type="curve"/>
      <point x="23" y="494"/>
      <point x="22" y="486"/>
      <point x="22" y="479" type="curve" smooth="yes"/>
      <point x="22" y="473"/>
      <point x="23" y="467"/>
      <point x="24" y="462" type="curve"/>
      <point x="94" y="453" type="line"/>
      <point x="94" y="136" type="line" smooth="yes"/>
      <point x="94" y="24"/>
      <point x="146" y="-20"/>
      <point x="207" y="-20" type="curve" smooth="yes"/>
      <point x="262" y="-20"/>
      <point x="292" y="-2"/>
      <point x="341" y="28" type="curve"/>
      <point x="339" y="42"/>
      <point x="339" y="52"/>
      <point x="327" y="62" type="curve"/>
      <point x="293" y="49"/>
      <point x="272" y="41"/>
      <point x="246" y="41" type="curve" smooth="yes"/>
      <point x="209" y="41"/>
      <point x="190" y="75"/>
      <point x="190" y="176" type="curve" smooth="yes"/>
      <point x="190" y="441" type="line"/>
      <point x="331" y="462" type="line"/>
      <point x="332" y="468"/>
      <point x="333" y="476"/>
      <point x="333" y="483" type="curve" smooth="yes"/>
      <point x="333" y="489"/>
      <point x="332" y="495"/>
      <point x="331" y="501" type="curve"/>
      <point x="190" y="501" type="line"/>
    </contour>
  </outline>
</glyph>
<glyph name="u" format="1">
  <advance width="615"/>
  <unicode hex="0075"/>
  <outline>
    <contour>
      <point x="516" y="534" type="line"/>
      <point x="515" y="541"/>
      <point x="512" y="547"/>
      <point x="506" y="554" type="curve"/>
      <point x="448" y="545"/>
      <point x="394" y="537"/>
      <point x="339" y="533" type="curve"/>
      <point x="337" y="520"/>
      <point x="336" y="508"/>
      <point x="339" y="495" type="curve"/>
      <point x="418" y="485" type="line"/>
      <point x="421" y="453"/>
      <point x="421" y="377"/>
      <point x="421" y="340" type="curve" smooth="yes"/>
      <point x="421" y="138" type="line"/>
      <point x="374" y="69"/>
      <point x="326" y="38"/>
      <point x="269" y="38" type="curve" smooth="yes"/>
      <point x="206" y="38"/>
      <point x="191" y="78"/>
      <point x="191" y="167" type="curve" smooth="yes"/>
      <point x="191" y="429"/>
      <point x="191" y="508"/>
      <point x="196" y="534" type="curve"/>
      <point x="195" y="541"/>
      <point x="192" y="547"/>
      <point x="186" y="554" type="curve"/>
      <point x="128" y="545"/>
      <point x="69" y="537"/>
      <point x="14" y="533" type="curve"/>
      <point x="12" y="520"/>
      <point x="11" y="508"/>
      <point x="14" y="495" type="curve"/>
      <point x="93" y="485" type="line"/>
      <point x="96" y="453"/>
      <point x="96" y="376"/>
      <point x="96" y="339" type="curve" smooth="yes"/>
      <point x="96" y="117" type="line" smooth="yes"/>
      <point x="96" y="7"/>
      <point x="171" y="-20"/>
      <point x="240" y="-20" type="curve" smooth="yes"/>
      <point x="327" y="-20"/>
      <point x="383" y="32"/>
      <point x="431" y="94" type="curve"/>
      <point x="436" y="5" type="line"/>
      <point x="438" y="-4"/>
      <point x="442" y="-10"/>
      <point x="446" y="-14" type="curve"/>
      <point x="496" y="-7"/>
      <point x="548" y="-2"/>
      <point x="598" y="0" type="curve"/>
      <point x="600" y="13"/>
      <point x="601" y="24"/>
      <point x="598" y="38" type="curve"/>
      <point x="519" y="48" type="line"/>
      <point x="516" y="75"/>
      <point x="516" y="106"/>
      <point x="516" y="142" type="curve" smooth="yes"/>
    </contour>
    <contour>
      <point x="296" y="570" type="move" name="top"/>
    </contour>
  </outline>
</glyph>
<glyph name="v" format="1">
  <advance width="566"/>
  <unicode hex="0076"/>
  <outline>
    <contour>
      <point x="287" y="-44" type="line"/>
      <point x="494" y="486" type="line"/>
      <point x="569" y="497" type="line"/>
      <point x="573" y="510"/>
      <point x="573" y="523"/>
      <point x="569" y="536" type="curve"/>
      <point x="526" y="534"/>
      <point x="494" y="533"/>
      <point x="462" y="533" type="curve" smooth="yes"/>
      <point x="430" y="533"/>
      <point x="398" y="534"/>
      <point x="357" y="537" type="curve"/>
      <point x="355" y="524"/>
      <point x="354" y="510"/>
      <point x="357" y="497" type="curve"/>
      <point x="435" y="489" type="line"/>
      <point x="349" y="250" type="line"/>
      <point x="332" y="209"/>
      <point x="314" y="152"/>
      <point x="302" y="110" type="curve"/>
      <point x="300" y="110" type="line"/>
      <point x="289" y="154"/>
      <point x="270" y="209"/>
      <point x="254" y="255" type="curve" smooth="yes"/>
      <point x="173" y="485" type="line"/>
      <point x="236" y="497" type="line"/>
      <point x="240" y="510"/>
      <point x="240" y="523"/>
      <point x="236" y="536" type="curve"/>
      <point x="193" y="534"/>
      <point x="154" y="533"/>
      <point x="115" y="533" type="curve" smooth="yes"/>
      <point x="76" y="533"/>
      <point x="37" y="534"/>
      <point x="-4" y="537" type="curve"/>
      <point x="-6" y="524"/>
      <point x="-7" y="510"/>
      <point x="-4" y="497" type="curve"/>
      <point x="59" y="485" type="line"/>
      <point x="266" y="-44" type="line"/>
    </contour>
  </outline>
</glyph>
<glyph name="x" format="1">
  <advance width="617"/>
  <unicode hex="0078"/>
  <outline>
    <contour>
      <point x="516" y="486" type="line"/>
      <point x="591" y="497" type="line"/>
      <point x="595" y="510"/>
      <point x="595" y="523"/>
      <point x="591" y="536" type="curve"/>
      <point x="548" y="534"/>
      <point x="518" y="533"/>
      <point x="489" y="533" type="curve" smooth="yes"/>
      <point x="459" y="533"/>
      <point x="430" y="534"/>
      <point x="389" y="537" type="curve"/>
      <point x="387" y="524"/>
      <point x="386" y="510"/>
      <point x="389" y="497" type="curve"/>
      <point x="457" y="489" type="line"/>
      <point x="321" y="316" type="line"/>
      <point x="191" y="486" type="line"/>
      <point x="263" y="499" type="line"/>
      <point x="267" y="512"/>
      <point x="267" y="525"/>
      <point x="263" y="537" type="curve"/>
      <point x="220" y="535"/>
      <point x="180" y="534"/>
      <point x="140" y="534" type="curve" smooth="yes"/>
      <point x="100" y="534"/>
      <point x="59" y="535"/>
      <point x="18" y="538" type="curve"/>
      <point x="16" y="526"/>
      <point x="15" y="512"/>
      <point x="18" y="499" type="curve"/>
      <point x="79" y="485" type="line"/>
      <point x="256" y="253" type="line"/>
      <point x="91" y="48" type="line"/>
      <point x="16" y="37" type="line"/>
      <point x="12" y="24"/>
      <point x="12" y="11"/>
      <point x="16" y="-2" type="curve"/>
      <point x="58" y="-1"/>
      <point x="89" y="0"/>
      <point x="120" y="0" type="curve" smooth="yes"/>
      <point x="151" y="0"/>
      <point x="181" y="-1"/>
      <point x="223" y="-3" type="curve"/>
      <point x="225" y="10"/>
      <point x="226" y="24"/>
      <point x="223" y="37" type="curve"/>
      <point x="155" y="45" type="line"/>
      <point x="287" y="213" type="line"/>
      <point x="413" y="48" type="line"/>
      <point x="340" y="37" type="line"/>
      <point x="336" y="24"/>
      <point x="336" y="11"/>
      <point x="340" y="-2" type="curve"/>
      <point x="382" y="-1"/>
      <point x="428" y="0"/>
      <point x="474" y="0" type="curve" smooth="yes"/>
      <point x="520" y="0"/>
      <point x="565" y="-1"/>
      <point x="607" y="-3" type="curve"/>
      <point x="609" y="10"/>
      <point x="610" y="24"/>
      <point x="607" y="37" type="curve"/>
      <point x="523" y="53" type="line"/>
      <point x="349" y="279" type="line"/>
    </contour>
  </outline>
</glyph>
<glyph name="braceleft" format="1">
  <advance width="406"/>
  <unicode hex="007B"/>
  <outline>
    <contour>
      <point x="243" y="172" type="line" smooth="yes"/>
      <point x="243" y="277"/>
      <point x="232" y="327"/>
      <point x="177" y="349" type="curve"/>
      <point x="232" y="371"/>
      <point x="243" y="422"/>
      <point x="243" y="527" type="curve" smooth="yes"/>
      <point x="243" y="674" type="line" smooth="yes"/>
      <point x="243" y="800"/>
      <point x="255" y="819"/>
      <point x="366" y="819" type="curve"/>
      <point x="372" y="835"/>
      <point x="374" y="851"/>
      <point x="366" y="870" type="curve"/>
      <point x="184" y="870"/>
      <point x="156" y="836"/>
      <point x="156" y="677" type="curve" smooth="yes"/>
      <point x="156" y="530" type="line" smooth="yes"/>
      <point x="156" y="403"/>
      <point x="146" y="365"/>
      <point x="53" y="365" type="curve"/>
      <point x="49" y="356"/>
      <point x="49" y="345"/>
      <point x="53" y="334" type="curve"/>
      <point x="60" y="334" type="line" smooth="yes"/>
      <point x="146" y="332"/>
      <point x="156" y="293"/>
      <point x="156" y="169" type="curve" smooth="yes"/>
      <point x="156" y="22" type="line" smooth="yes"/>
      <point x="156" y="-137"/>
      <point x="184" y="-171"/>
      <point x="366" y="-171" type="curve"/>
      <point x="373" y="-154"/>
      <point x="373" y="-137"/>
      <point x="366" y="-120" type="curve"/>
      <point x="255" y="-120"/>
      <point x="243" y="-101"/>
      <point x="243" y="25" type="curve" smooth="yes"/>
    </contour>
  </outline>
</glyph>
<glyph name="cent" format="1">
  <advance width="549"/>
  <unicode hex="00A2"/>
  <outline>
    <contour>
      <point x="366" y="668" type="line"/>
      <point x="349" y="675"/>
      <point x="333" y="675"/>
      <point x="316" y="668" type="curve"/>
      <point x="306" y="554" type="line"/>
      <point x="305" y="554" type="line"/>
      <point x="186" y="554"/>
      <point x="52" y="460"/>
      <point x="52" y="268" type="curve" smooth="yes"/>
      <point x="52" y="97"/>
      <point x="127" y="-1"/>
      <point x="255" y="-17" type="curve"/>
      <point x="246" y="-128" type="line"/>
      <point x="262" y="-133"/>
      <point x="278" y="-134"/>
      <point x="296" y="-128" type="curve"/>
      <point x="305" y="-20" type="line"/>
      <point x="381" y="-17"/>
      <point x="445" y="9"/>
      <point x="495" y="58" type="curve"/>
      <point x="489" y="75"/>
      <point x="485" y="81"/>
      <point x="472" y="89" type="curve"/>
      <point x="428" y="57"/>
      <point x="369" y="25"/>
      <point x="310" y="25" type="curve"/>
      <point x="309" y="25" type="line"/>
      <point x="351" y="497" type="line"/>
      <point x="376" y="479"/>
      <point x="398" y="444"/>
      <point x="407" y="385" type="curve"/>
      <point x="461" y="384"/>
      <point x="493" y="388"/>
      <point x="510" y="406" type="curve"/>
      <point x="510" y="492"/>
      <point x="436" y="537"/>
      <point x="355" y="550" type="curve"/>
    </contour>
    <contour>
      <point x="159" y="419"/>
      <point x="220" y="514"/>
      <point x="300" y="514" type="curve" smooth="yes"/>
      <point x="302" y="514" type="line"/>
      <point x="260" y="35" type="line"/>
      <point x="196" y="64"/>
      <point x="159" y="148"/>
      <point x="159" y="266" type="curve" smooth="yes"/>
    </contour>
  </outline>
</glyph>
<glyph name="currency" format="1">
  <advance width="585"/>
  <unicode hex="00A4"/>
  <outline>
    <contour>
      <point x="503" y="407"/>
      <point x="486" y="452"/>
      <point x="458" y="488" type="curve"/>
      <point x="521" y="551" type="line"/>
      <point x="512" y="567"/>
      <point x="502" y="579"/>
      <point x="486" y="587" type="curve"/>
      <point x="422" y="523" type="line"/>
      <point x="386" y="551"/>
      <point x="341" y="568"/>
      <point x="293" y="568" type="curve" smooth="yes"/>
      <point x="244" y="568"/>
      <point x="198" y="551"/>
      <point x="163" y="524" type="curve"/>
      <point x="101" y="586" type="line"/>
      <point x="84" y="578"/>
      <point x="72" y="568"/>
      <point x="65" y="551" type="curve"/>
      <point x="127" y="488" type="line"/>
      <point x="99" y="453"/>
      <point x="82" y="408"/>
      <point x="82" y="359" type="curve" smooth="yes"/>
      <point x="82" y="309"/>
      <point x="99" y="264"/>
      <point x="127" y="228" type="curve"/>
      <point x="66" y="167" type="line"/>
      <point x="73" y="147"/>
      <point x="87" y="139"/>
      <point x="102" y="131" type="curve"/>
      <point x="163" y="192" type="line"/>
      <point x="198" y="164"/>
      <point x="244" y="148"/>
      <point x="293" y="148" type="curve" smooth="yes"/>
      <point x="341" y="148"/>
      <point x="386" y="165"/>
      <point x="422" y="193" type="curve"/>
      <point x="483" y="132" type="line"/>
      <point x="502" y="139"/>
      <point x="514" y="149"/>
      <point x="518" y="168" type="curve"/>
      <point x="458" y="228" type="line"/>
      <point x="486" y="264"/>
      <point x="503" y="309"/>
      <point x="503" y="359" type="curve" smooth="yes"/>
    </contour>
    <contour>
      <point x="448" y="273"/>
      <point x="378" y="204"/>
      <point x="293" y="204" type="curve" smooth="yes"/>
      <point x="207" y="204"/>
      <point x="137" y="273"/>
      <point x="137" y="359" type="curve" smooth="yes"/>
      <point x="137" y="444"/>
      <point x="207" y="513"/>
      <point x="293" y="513" type="curve" smooth="yes"/>
      <point x="378" y="513"/>
      <point x="448" y="444"/>
      <point x="448" y="359" type="curve" smooth="yes"/>
    </contour>
  </outline>
</glyph>
<glyph name="brokenbar" format="1">
  <advance width="240"/>
  <unicode hex="00A6"/>
  <outline>
    <contour>
      <point x="151" y="783" type="line"/>
      <point x="135" y="787"/>
      <point x="112" y="787"/>
      <point x="94" y="783" type="curve"/>
      <point x="94" y="447" type="line"/>
      <point x="111" y="442"/>
      <point x="134" y="441"/>
      <point x="151" y="447" type="curve"/>
    </contour>
    <contour>
      <point x="151" y="324" type="line"/>
      <point x="135" y="328"/>
      <point x="112" y="328"/>
      <point x="94" y="324" type="curve"/>
      <point x="94" y="-12" type="line"/>
      <point x="111" y="-17"/>
      <point x="134" y="-18"/>
      <point x="151" y="-12" type="curve"/>
    </contour>
  </outline>
</glyph>
<glyph name="section" format="1">
  <advance width="537"/>
  <unicode hex="00A7"/>
  <outline>
    <contour>
      <point x="231" y="603" type="line"/>
      <point x="191" y="634"/>
      <point x="172" y="670"/>
      <point x="172" y="703" type="curve" smooth="yes"/>
      <point x="172" y="768"/>
      <point x="220" y="794"/>
      <point x="272" y="794" type="curve" smooth="yes"/>
      <point x="319" y="794"/>
      <point x="356" y="765"/>
      <point x="369" y="665" type="curve"/>
      <point x="381" y="663"/>
      <point x="394" y="662"/>
      <point x="406" y="662" type="curve" smooth="yes"/>
      <point x="437" y="662"/>
      <point x="465" y="669"/>
      <point x="482" y="686" type="curve"/>
      <point x="482" y="790"/>
      <point x="384" y="837"/>
      <point x="297" y="837" type="curve" smooth="yes"/>
      <point x="181" y="837"/>
      <point x="95" y="775"/>
      <point x="95" y="665" type="curve" smooth="yes"/>
      <point x="95" y="627"/>
      <point x="109" y="587"/>
      <point x="145" y="550" type="curve"/>
      <point x="102" y="512"/>
      <point x="73" y="456"/>
      <point x="73" y="401" type="curve" smooth="yes"/>
      <point x="73" y="335"/>
      <point x="102" y="281"/>
      <point x="153" y="240" type="curve"/>
      <point x="318" y="122" type="line"/>
      <point x="358" y="90"/>
      <point x="377" y="62"/>
      <point x="377" y="28" type="curve" smooth="yes"/>
      <point x="377" y="-37"/>
      <point x="331" y="-67"/>
      <point x="269" y="-67" type="curve" smooth="yes"/>
      <point x="222" y="-67"/>
      <point x="166" y="-34"/>
      <point x="153" y="66" type="curve"/>
      <point x="139" y="68"/>
      <point x="126" y="69"/>
      <point x="115" y="69" type="curve" smooth="yes"/>
      <point x="76" y="69"/>
      <point x="51" y="57"/>
      <point x="40" y="45" type="curve"/>
      <point x="40" y="-59"/>
      <point x="157" y="-106"/>
      <point x="244" y="-106" type="curve" smooth="yes"/>
      <point x="373" y="-106"/>
      <point x="454" y="-47"/>
      <point x="454" y="75" type="curve" smooth="yes"/>
      <point x="454" y="112"/>
      <point x="438" y="146"/>
      <point x="403" y="181" type="curve"/>
      <point x="448" y="223"/>
      <point x="474" y="283"/>
      <point x="474" y="342" type="curve" smooth="yes"/>
      <point x="474" y="393"/>
      <point x="454" y="442"/>
      <point x="412" y="476" type="curve"/>
    </contour>
    <contour>
      <point x="210" y="322" type="line"/>
      <point x="163" y="357"/>
      <point x="139" y="398"/>
      <point x="139" y="436" type="curve" smooth="yes"/>
      <point x="139" y="469"/>
      <point x="155" y="502"/>
      <point x="177" y="523" type="curve"/>
      <point x="179" y="521"/>
      <point x="181" y="519"/>
      <point x="184" y="518" type="curve"/>
      <point x="339" y="402" type="line"/>
      <point x="386" y="369"/>
      <point x="410" y="323"/>
      <point x="410" y="285" type="curve" smooth="yes"/>
      <point x="410" y="252"/>
      <point x="394" y="225"/>
      <point x="373" y="206" type="curve"/>
      <point x="365" y="213" type="line"/>
    </contour>
  </outline>
</glyph>
<glyph name="registered" format="1">
  <advance width="894"/>
  <unicode hex="00AE"/>
  <outline>
    <contour>
      <point x="842" y="589"/>
      <point x="668" y="773"/>
      <point x="447" y="773" type="curve" smooth="yes"/>
      <point x="237" y="773"/>
      <point x="53" y="600"/>
      <point x="53" y="379" type="curve" smooth="yes"/>
      <point x="53" y="170"/>
      <point x="226" y="-15"/>
      <point x="447" y="-15" type="curve" smooth="yes"/>
      <point x="656" y="-15"/>
      <point x="842" y="158"/>
      <point x="842" y="379" type="curve" smooth="yes"/>
    </contour>
    <contour>
      <point x="802" y="180"/>
      <point x="635" y="24"/>
      <point x="447" y="24" type="curve" smooth="yes"/>
      <point x="248" y="24"/>
      <point x="93" y="191"/>
      <point x="93" y="379" type="curve" smooth="yes"/>
      <point x="93" y="578"/>
      <point x="258" y="734"/>
      <point x="447" y="734" type="curve" smooth="yes"/>
      <point x="646" y="734"/>
      <point x="802" y="568"/>
      <point x="802" y="379" type="curve" smooth="yes"/>
    </contour>
    <contour>
      <point x="249" y="609"/>
      <point x="249" y="601"/>
      <point x="251" y="594" type="curve"/>
      <point x="297" y="588" type="line"/>
      <point x="297" y="251" type="line" smooth="yes"/>
      <point x="297" y="229"/>
      <point x="297" y="205"/>
      <point x="294" y="184" type="curve"/>
      <point x="247" y="177" type="line"/>
      <point x="245" y="169"/>
      <point x="245" y="163"/>
      <point x="247" y="156" type="curve"/>
      <point x="269" y="157"/>
      <point x="298" y="157"/>
      <point x="327" y="157" type="curve" smooth="yes"/>
      <point x="363" y="157"/>
      <point x="400" y="157"/>
      <point x="426" y="155" type="curve"/>
      <point x="427" y="162"/>
      <point x="428" y="169"/>
      <point x="426" y="177" type="curve"/>
      <point x="373" y="183" type="line"/>
      <point x="373" y="368" type="line"/>
      <point x="392" y="367"/>
      <point x="410" y="365"/>
      <point x="428" y="365" type="curve"/>
      <point x="438" y="352"/>
      <point x="449" y="334"/>
      <point x="460" y="314" type="curve" smooth="yes"/>
      <point x="547" y="157" type="line"/>
      <point x="657" y="157" type="line"/>
      <point x="658" y="164"/>
      <point x="659" y="171"/>
      <point x="657" y="179" type="curve"/>
      <point x="616" y="184" type="line"/>
      <point x="502" y="376" type="line"/>
      <point x="559" y="396"/>
      <point x="603" y="439"/>
      <point x="603" y="491" type="curve" smooth="yes"/>
      <point x="603" y="567"/>
      <point x="557" y="620"/>
      <point x="434" y="620" type="curve" smooth="yes"/>
      <point x="355" y="620"/>
      <point x="301" y="615"/>
      <point x="251" y="616" type="curve"/>
    </contour>
    <contour>
      <point x="373" y="516" type="line" smooth="yes"/>
      <point x="373" y="538"/>
      <point x="374" y="565"/>
      <point x="377" y="588" type="curve"/>
      <point x="386" y="589"/>
      <point x="406" y="592"/>
      <point x="419" y="592" type="curve" smooth="yes"/>
      <point x="501" y="592"/>
      <point x="526" y="553"/>
      <point x="526" y="491" type="curve" smooth="yes"/>
      <point x="526" y="447"/>
      <point x="507" y="397"/>
      <point x="426" y="397" type="curve" smooth="yes"/>
      <point x="411" y="397"/>
      <point x="391" y="396"/>
      <point x="373" y="400" type="curve"/>
    </contour>
  </outline>
</glyph>
<glyph name="threesuperior" format="1">
  <advance width="395"/>
  <unicode hex="00B3"/>
  <outline>
    <contour>
      <point x="162" y="351"/>
      <point x="138" y="373"/>
      <point x="128" y="432" type="curve"/>
      <point x="96" y="435"/>
      <point x="73" y="422"/>
      <point x="55" y="412" type="curve"/>
      <point x="55" y="340"/>
      <point x="123" y="309"/>
      <point x="184" y="309" type="curve" smooth="yes"/>
      <point x="287" y="309"/>
      <point x="348" y="372"/>
      <point x="348" y="463" type="curve" smooth="yes"/>
      <point x="348" y="528"/>
      <point x="313" y="577"/>
      <point x="233" y="586" type="curve"/>
      <point x="233" y="588" type="line"/>
      <point x="300" y="608"/>
      <point x="328" y="646"/>
      <point x="328" y="696" type="curve" smooth="yes"/>
      <point x="328" y="762"/>
      <point x="278" y="807"/>
      <point x="194" y="807" type="curve" smooth="yes"/>
      <point x="110" y="807"/>
      <point x="62" y="762"/>
      <point x="62" y="695" type="curve"/>
      <point x="74" y="679"/>
      <point x="103" y="676"/>
      <point x="133" y="677" type="curve"/>
      <point x="139" y="741"/>
      <point x="156" y="771"/>
      <point x="197" y="771" type="curve" smooth="yes"/>
      <point x="241" y="771"/>
      <point x="247" y="738"/>
      <point x="247" y="697" type="curve" smooth="yes"/>
      <point x="247" y="643"/>
      <point x="237" y="609"/>
      <point x="173" y="609" type="curve" smooth="yes"/>
      <point x="162" y="609" type="line"/>
      <point x="157" y="602"/>
      <point x="158" y="560"/>
      <point x="162" y="555" type="curve"/>
      <point x="174" y="555" type="line" smooth="yes"/>
      <point x="247" y="555"/>
      <point x="271" y="511"/>
      <point x="271" y="452" type="curve" smooth="yes"/>
      <point x="271" y="389"/>
      <point x="251" y="351"/>
      <point x="197" y="351" type="curve" smooth="yes"/>
    </contour>
  </outline>
</glyph>
<glyph name="acute" format="1">
  <advance width="234"/>
  <unicode hex="00B4"/>
  <outline>
    <contour>
      <point x="240" y="724" type="line"/>
      <point x="201" y="764"/>
      <point x="175" y="775"/>
      <point x="153" y="761" type="curve"/>
      <point x="69" y="587" type="line"/>
      <point x="78" y="581"/>
      <point x="97" y="574"/>
      <point x="112" y="570" type="curve"/>
    </contour>
    <contour>
      <point x="97" y="537" type="move" name="_top"/>
    </contour>
  </outline>
</glyph>
<glyph name="micro" format="1">
  <advance width="561"/>
  <unicode hex="00B5"/>
  <outline>
    <contour>
      <point x="416" y="48"/>
      <point x="415" y="27"/>
      <point x="411" y="8" type="curve"/>
      <point x="412" y="1"/>
      <point x="415" y="-5"/>
      <point x="421" y="-12" type="curve"/>
      <point x="452" y="-7"/>
      <point x="483" y="-3"/>
      <point x="514" y="1" type="curve"/>
      <point x="506" y="41"/>
      <point x="501" y="105"/>
      <point x="501" y="142" type="curve" smooth="yes"/>
      <point x="501" y="348" type="line" smooth="yes"/>
      <point x="501" y="481"/>
      <point x="502" y="515"/>
      <point x="506" y="534" type="curve"/>
      <point x="505" y="541"/>
      <point x="502" y="547"/>
      <point x="496" y="554" type="curve"/>
      <point x="465" y="549"/>
      <point x="434" y="545"/>
      <point x="403" y="541" type="curve"/>
      <point x="406" y="453"/>
      <point x="406" y="376"/>
      <point x="406" y="339" type="curve" smooth="yes"/>
      <point x="406" y="138" type="line"/>
      <point x="359" y="69"/>
      <point x="311" y="38"/>
      <point x="254" y="38" type="curve" smooth="yes"/>
      <point x="206" y="38"/>
      <point x="176" y="87"/>
      <point x="176" y="167" type="curve" smooth="yes"/>
      <point x="176" y="429"/>
      <point x="176" y="508"/>
      <point x="181" y="534" type="curve"/>
      <point x="180" y="541"/>
      <point x="177" y="547"/>
      <point x="171" y="554" type="curve"/>
      <point x="140" y="549"/>
      <point x="109" y="545"/>
      <point x="78" y="541" type="curve"/>
      <point x="81" y="453"/>
      <point x="81" y="376"/>
      <point x="81" y="339" type="curve" smooth="yes"/>
      <point x="81" y="10" type="line" smooth="yes"/>
      <point x="81" y="-142"/>
      <point x="113" y="-290"/>
      <point x="227" y="-290" type="curve" smooth="yes"/>
      <point x="309" y="-290"/>
      <point x="338" y="-249"/>
      <point x="338" y="-199" type="curve"/>
      <point x="322" y="-186"/>
      <point x="302" y="-180"/>
      <point x="278" y="-180" type="curve" smooth="yes"/>
      <point x="267" y="-180"/>
      <point x="254" y="-181"/>
      <point x="241" y="-184" type="curve"/>
      <point x="234" y="-228"/>
      <point x="227" y="-255"/>
      <point x="210" y="-255" type="curve" smooth="yes"/>
      <point x="175" y="-255"/>
      <point x="146" y="-198"/>
      <point x="146" y="-43" type="curve" smooth="yes"/>
      <point x="146" y="10" type="line"/>
      <point x="171" y="-10"/>
      <point x="203" y="-20"/>
      <point x="235" y="-20" type="curve" smooth="yes"/>
      <point x="322" y="-20"/>
      <point x="368" y="32"/>
      <point x="416" y="94" type="curve"/>
    </contour>
  </outline>
</glyph>
<glyph name="cedilla" format="1">
  <advance width="343"/>
  <unicode hex="00B8"/>
  <outline>
    <contour>
      <point x="56" y="-188"/>
      <point x="55" y="-204"/>
      <point x="61" y="-219" type="curve"/>
      <point x="85" y="-224"/>
      <point x="116" y="-230"/>
      <point x="138" y="-230" type="curve" smooth="yes"/>
      <point x="228" y="-230"/>
      <point x="280" y="-197"/>
      <point x="280" y="-126" type="curve" smooth="yes"/>
      <point x="280" y="-73"/>
      <point x="242" y="-37"/>
      <point x="175" y="-34" type="curve"/>
      <point x="181" y="9" type="line"/>
      <point x="128" y="9" type="line"/>
      <point x="112" y="-69" type="line"/>
      <point x="155" y="-72"/>
      <point x="185" y="-88"/>
      <point x="185" y="-127" type="curve" smooth="yes"/>
      <point x="185" y="-161"/>
      <point x="162" y="-181"/>
      <point x="123" y="-181" type="curve" smooth="yes"/>
      <point x="104" y="-181"/>
      <point x="85" y="-178"/>
      <point x="61" y="-173" type="curve"/>
    </contour>
  </outline>
</glyph>
<glyph name="ordmasculine" format="1">
  <advance width="462"/>
  <unicode hex="00BA"/>
  <outline>
    <contour>
      <point x="25" y="448"/>
      <point x="99" y="351"/>
      <point x="225" y="351" type="curve" smooth="yes"/>
      <point x="343" y="351"/>
      <point x="427" y="448"/>
      <point x="427" y="579" type="curve" smooth="yes"/>
      <point x="427" y="701"/>
      <point x="351" y="807"/>
      <point x="225" y="807" type="curve" smooth="yes"/>
      <point x="99" y="807"/>
      <point x="25" y="701"/>
      <point x="25" y="579" type="curve" smooth="yes"/>
    </contour>
    <contour>
      <point x="108" y="718"/>
      <point x="165" y="774"/>
      <point x="225" y="774" type="curve" smooth="yes"/>
      <point x="285" y="774"/>
      <point x="344" y="718"/>
      <point x="344" y="579" type="curve" smooth="yes"/>
      <point x="344" y="439"/>
      <point x="285" y="384"/>
      <point x="225" y="384" type="curve" smooth="yes"/>
      <point x="165" y="384"/>
      <point x="108" y="439"/>
      <point x="108" y="579" type="curve" smooth="yes"/>
    </contour>
  </outline>
</glyph>
<glyph name="AE" format="1">
  <advance width="1000"/>
  <unicode hex="00C6"/>
  <outline>
    <contour>
      <point x="464" y="293" type="line"/>
      <point x="464" y="0" type="line"/>
      <point x="944" y="0" type="line"/>
      <point x="945" y="232" type="line"/>
      <point x="933" y="234"/>
      <point x="920" y="235"/>
      <point x="908" y="232" type="curve"/>
      <point x="861" y="51" type="line"/>
      <point x="561" y="51" type="line"/>
      <point x="561" y="395" type="line"/>
      <point x="722" y="391" type="line"/>
      <point x="744" y="287" type="line"/>
      <point x="756" y="283"/>
      <point x="768" y="283"/>
      <point x="780" y="287" type="curve"/>
      <point x="778" y="329"/>
      <point x="777" y="373"/>
      <point x="777" y="417" type="curve" smooth="yes"/>
      <point x="777" y="461"/>
      <point x="778" y="504"/>
      <point x="781" y="546" type="curve"/>
      <point x="769" y="548"/>
      <point x="756" y="549"/>
      <point x="744" y="546" type="curve"/>
      <point x="721" y="448" type="line"/>
      <point x="561" y="445" type="line"/>
      <point x="561" y="745" type="line"/>
      <point x="831" y="745" type="line"/>
      <point x="878" y="564" type="line"/>
      <point x="890" y="561"/>
      <point x="903" y="562"/>
      <point x="915" y="564" type="curve"/>
      <point x="914" y="796" type="line"/>
      <point x="436" y="796" type="line"/>
      <point x="-2" y="46" type="line"/>
      <point x="-78" y="34" type="line"/>
      <point x="-82" y="22"/>
      <point x="-82" y="10"/>
      <point x="-78" y="-2" type="curve"/>
      <point x="-36" y="-1"/>
      <point x="0" y="0"/>
      <point x="35" y="0" type="curve" smooth="yes"/>
      <point x="70" y="0"/>
      <point x="104" y="-1"/>
      <point x="146" y="-3" type="curve"/>
      <point x="148" y="9"/>
      <point x="149" y="22"/>
      <point x="146" y="34" type="curve"/>
      <point x="65" y="44" type="line"/>
      <point x="205" y="293" type="line"/>
    </contour>
    <contour>
      <point x="464" y="751" type="line"/>
      <point x="464" y="343" type="line"/>
      <point x="233" y="343" type="line"/>
    </contour>
  </outline>
</glyph>
<glyph name="Eth" format="1">
  <advance width="836"/>
  <unicode hex="00D0"/>
  <outline>
    <contour>
      <point x="75" y="-1"/>
      <point x="104" y="-1"/>
      <point x="133" y="-1" type="curve" smooth="yes"/>
      <point x="220" y="-1"/>
      <point x="310" y="-4"/>
      <point x="419" y="-4" type="curve" smooth="yes"/>
      <point x="656" y="-4"/>
      <point x="780" y="186"/>
      <point x="780" y="418" type="curve" smooth="yes"/>
      <point x="780" y="648"/>
      <point x="652" y="809"/>
      <point x="382" y="809" type="curve" smooth="yes"/>
      <point x="335" y="809"/>
      <point x="212" y="798"/>
      <point x="100" y="798" type="curve" smooth="yes"/>
      <point x="84" y="798"/>
      <point x="68" y="798"/>
      <point x="53" y="799" type="curve"/>
      <point x="51" y="787"/>
      <point x="50" y="774"/>
      <point x="53" y="762" type="curve"/>
      <point x="134" y="752" type="line"/>
      <point x="134" y="437" type="line"/>
      <point x="47" y="437" type="line"/>
      <point x="47" y="387" type="line"/>
      <point x="134" y="387" type="line"/>
      <point x="134" y="163" type="line" smooth="yes"/>
      <point x="134" y="126"/>
      <point x="134" y="84"/>
      <point x="130" y="46" type="curve"/>
      <point x="47" y="34" type="line"/>
      <point x="43" y="22"/>
      <point x="43" y="10"/>
      <point x="47" y="-2" type="curve"/>
    </contour>
    <contour>
      <point x="448" y="437" type="line"/>
      <point x="241" y="437" type="line"/>
      <point x="241" y="633" type="line" smooth="yes"/>
      <point x="241" y="670"/>
      <point x="241" y="716"/>
      <point x="245" y="754" type="curve"/>
      <point x="277" y="760"/>
      <point x="309" y="762"/>
      <point x="341" y="762" type="curve" smooth="yes"/>
      <point x="353" y="762"/>
      <point x="366" y="762"/>
      <point x="378" y="761" type="curve" smooth="yes"/>
      <point x="565" y="753"/>
      <point x="663" y="621"/>
      <point x="663" y="412" type="curve" smooth="yes"/>
      <point x="663" y="163"/>
      <point x="567" y="44"/>
      <point x="381" y="44" type="curve" smooth="yes"/>
      <point x="315" y="44"/>
      <point x="274" y="47"/>
      <point x="241" y="47" type="curve"/>
      <point x="241" y="387" type="line"/>
      <point x="448" y="387" type="line"/>
    </contour>
  </outline>
</glyph>
<glyph name="Thorn" format="1">
  <advance width="645"/>
  <unicode hex="00DE"/>
  <outline>
    <contour>
      <point x="133" y="520" type="line"/>
      <point x="133" y="163" type="line" smooth="yes"/>
      <point x="133" y="126"/>
      <point x="133" y="84"/>
      <point x="129" y="46" type="curve"/>
      <point x="46" y="34" type="line"/>
      <point x="42" y="22"/>
      <point x="42" y="10"/>
      <point x="46" y="-2" type="curve"/>
      <point x="88" y="-1"/>
      <point x="136" y="0"/>
      <point x="184" y="0" type="curve" smooth="yes"/>
      <point x="232" y="0"/>
      <point x="279" y="-1"/>
      <point x="321" y="-3" type="curve"/>
      <point x="323" y="9"/>
      <point x="324" y="22"/>
      <point x="321" y="34" type="curve"/>
      <point x="240" y="44" type="line"/>
      <point x="240" y="196" type="line"/>
      <point x="269" y="193"/>
      <point x="297" y="192"/>
      <point x="324" y="192" type="curve" smooth="yes"/>
      <point x="478" y="192"/>
      <point x="613" y="288"/>
      <point x="613" y="418" type="curve" smooth="yes"/>
      <point x="613" y="551"/>
      <point x="545" y="647"/>
      <point x="326" y="647" type="curve" smooth="yes"/>
      <point x="293" y="647"/>
      <point x="265" y="646"/>
      <point x="240" y="645" type="curve"/>
      <point x="240" y="679"/>
      <point x="240" y="716"/>
      <point x="244" y="750" type="curve"/>
      <point x="327" y="762" type="line"/>
      <point x="331" y="774"/>
      <point x="331" y="786"/>
      <point x="327" y="798" type="curve"/>
      <point x="284" y="796"/>
      <point x="237" y="795"/>
      <point x="189" y="795" type="curve" smooth="yes"/>
      <point x="141" y="795"/>
      <point x="93" y="796"/>
      <point x="52" y="799" type="curve"/>
      <point x="50" y="787"/>
      <point x="49" y="774"/>
      <point x="52" y="762" type="curve"/>
      <point x="133" y="752" type="line"/>
    </contour>
    <contour>
      <point x="240" y="600" type="line"/>
      <point x="257" y="602"/>
      <point x="282" y="605"/>
      <point x="301" y="605" type="curve" smooth="yes"/>
      <point x="446" y="605"/>
      <point x="492" y="530"/>
      <point x="492" y="423" type="curve" smooth="yes"/>
      <point x="492" y="342"/>
      <point x="458" y="235"/>
      <point x="311" y="235" type="curve" smooth="yes"/>
      <point x="291" y="235"/>
      <point x="265" y="235"/>
      <point x="240" y="237" type="curve"/>
    </contour>
  </outline>
</glyph>
<glyph name="caron" format="1">
  <advance width="352"/>
  <unicode hex="02C7"/>
  <outline>
    <contour>
      <point x="142" y="579" type="line"/>
      <point x="154" y="574"/>
      <point x="162" y="572"/>
      <point x="170" y="572" type="curve" smooth="yes"/>
      <point x="178" y="572"/>
      <point x="185" y="574"/>
      <point x="198" y="579" type="curve"/>
      <point x="297" y="753" type="line"/>
      <point x="283" y="763"/>
      <point x="261" y="768"/>
      <point x="252" y="770" type="curve"/>
      <point x="170" y="658" type="line"/>
      <point x="89" y="770" type="line"/>
      <point x="80" y="768"/>
      <point x="57" y="763"/>
      <point x="43" y="753" type="curve"/>
    </contour>
  </outline>
</glyph>
<glyph name="emdash" format="1">
  <advance width="890"/>
  <unicode hex="2014"/>
  <outline>
    <contour>
      <point x="821" y="357" type="line"/>
      <point x="826" y="374"/>
      <point x="827" y="390"/>
      <point x="821" y="407" type="curve"/>
      <point x="70" y="407" type="line"/>
      <point x="61" y="388"/>
      <point x="65" y="373"/>
      <point x="70" y="357" type="curve"/>
    </contour>
  </outline>
</glyph>
<glyph name="quoteright" format="1">
  <advance width="252"/>
  <unicode hex="2019"/>
  <outline>
    <contour>
      <point x="142" y="610"/>
      <point x="216" y="673"/>
      <point x="216" y="764" type="curve" smooth="yes"/>
      <point x="216" y="809"/>
      <point x="189" y="851"/>
      <point x="138" y="851" type="curve" smooth="yes"/>
      <point x="99" y="851"/>
      <point x="65" y="822"/>
      <point x="65" y="782" type="curve" smooth="yes"/>
      <point x="65" y="743"/>
      <point x="93" y="712"/>
      <point x="146" y="712" type="curve" smooth="yes"/>
      <point x="149" y="712" type="line"/>
      <point x="132" y="657"/>
      <point x="81" y="612"/>
      <point x="48" y="594" type="curve"/>
      <point x="52" y="577"/>
      <point x="59" y="566"/>
      <point x="74" y="562" type="curve"/>
    </contour>
  </outline>
</glyph>
<glyph name="guilsinglleft" format="1">
  <advance width="318"/>
  <unicode hex="2039"/>
  <outline>
    <contour>
      <point x="137" y="247" type="line"/>
      <point x="270" y="433" type="line"/>
      <point x="267" y="444"/>
      <point x="259" y="451"/>
      <point x="248" y="454" type="curve"/>
      <point x="40" y="257" type="line"/>
      <point x="40" y="237" type="line"/>
      <point x="248" y="40" type="line"/>
      <point x="259" y="43"/>
      <point x="267" y="50"/>
      <point x="270" y="61" type="curve"/>
    </contour>
  </outline>
</glyph>
<glyph name="euro" format="1">
  <advance width="704"/>
  <unicode hex="20AC"/>
  <outline>
    <contour>
      <point x="29" y="467" type="line"/>
      <point x="16" y="450"/>
      <point x="12" y="434"/>
      <point x="15" y="417" type="curve"/>
      <point x="80" y="417" type="line"/>
      <point x="80" y="395" type="line"/>
      <point x="80" y="357" type="line"/>
      <point x="29" y="357" type="line"/>
      <point x="14" y="339"/>
      <point x="12" y="323"/>
      <point x="15" y="307" type="curve"/>
      <point x="85" y="307" type="line"/>
      <point x="107" y="120"/>
      <point x="204" y="-20"/>
      <point x="399" y="-20" type="curve" smooth="yes"/>
      <point x="488" y="-20"/>
      <point x="549" y="3"/>
      <point x="608" y="69" type="curve"/>
      <point x="606" y="87"/>
      <point x="600" y="100"/>
      <point x="582" y="107" type="curve"/>
      <point x="530" y="63"/>
      <point x="480" y="46"/>
      <point x="406" y="46" type="curve" smooth="yes"/>
      <point x="303" y="46"/>
      <point x="230" y="133"/>
      <point x="209" y="307" type="curve"/>
      <point x="406" y="307" type="line"/>
      <point x="419" y="321"/>
      <point x="423" y="337"/>
      <point x="420" y="357" type="curve"/>
      <point x="205" y="357" type="line"/>
      <point x="204" y="374"/>
      <point x="204" y="393"/>
      <point x="204" y="412" type="curve" smooth="yes"/>
      <point x="204" y="417" type="line"/>
      <point x="436" y="417" type="line"/>
      <point x="447" y="433"/>
      <point x="452" y="449"/>
      <point x="450" y="467" type="curve"/>
      <point x="206" y="467" type="line"/>
      <point x="219" y="646"/>
      <point x="301" y="766"/>
      <point x="431" y="766" type="curve" smooth="yes"/>
      <point x="470" y="766"/>
      <point x="513" y="759"/>
      <point x="560" y="741" type="curve"/>
      <point x="522" y="574" type="line"/>
      <point x="527" y="573"/>
      <point x="537" y="572"/>
      <point x="547" y="572" type="curve" smooth="yes"/>
      <point x="559" y="572"/>
      <point x="572" y="573"/>
      <point x="579" y="574" type="curve"/>
      <point x="649" y="766" type="line"/>
      <point x="577" y="799"/>
      <point x="508" y="813"/>
      <point x="444" y="813" type="curve" smooth="yes"/>
      <point x="255" y="813"/>
      <point x="113" y="665"/>
      <point x="85" y="467" type="curve"/>
    </contour>
  </outline>
</glyph>
<glyph name="minus" format="1">
  <advance width="652"/>
  <unicode hex="2212"/>
  <outline>
    <contour>
      <point x="572" y="365" type="line"/>
      <point x="577" y="382"/>
      <point x="578" y="398"/>
      <point x="572" y="415" type="curve"/>
      <point x="81" y="415" type="line"/>
      <point x="72" y="396"/>
      <point x="76" y="381"/>
      <point x="81" y="365" type="curve"/>
    </contour>
  </outline>
</glyph>
<glyph name="caron.case" format="1">
  <advance width="344"/>
  <outline>
    <contour>
      <point x="332" y="917" type="line"/>
      <point x="325" y="926"/>
      <point x="316" y="933"/>
      <point x="302" y="941" type="curve"/>
      <point x="174" y="847" type="line"/>
      <point x="47" y="941" type="line"/>
      <point x="33" y="933"/>
      <point x="24" y="926"/>
      <point x="17" y="917" type="curve"/>
      <point x="136" y="773" type="line"/>
      <point x="146" y="769"/>
      <point x="161" y="768"/>
      <point x="176" y="768" type="curve" smooth="yes"/>
      <point x="191" y="768"/>
      <point x="205" y="769"/>
      <point x="213" y="773" type="curve"/>
    </contour>
    <contour>
      <point x="175" y="737" type="move" name="_top"/>
    </contour>
  </outline>
</glyph>
<glyph name="circumflex.case" format="1">
  <advance width="355"/>
  <outline>
    <contour>
      <point x="181" y="848" type="line"/>
      <point x="320" y="763" type="line"/>
      <point x="332" y="773"/>
      <point x="339" y="786"/>
      <point x="344" y="796" type="curve"/>
      <point x="208" y="924" type="line"/>
      <point x="202" y="925"/>
      <point x="190" y="926"/>
      <point x="178" y="926" type="curve" smooth="yes"/>
      <point x="169" y="926"/>
      <point x="160" y="925"/>
      <point x="155" y="924" type="curve"/>
      <point x="19" y="796" type="line"/>
      <point x="24" y="786"/>
      <point x="31" y="773"/>
      <point x="43" y="763" type="curve"/>
    </contour>
    <contour>
      <point x="173" y="737" type="move" name="_top"/>
    </contour>
  </outline>
</glyph>
<glyph name="dieresis.case" format="1">
  <advance width="376"/>
  <outline>
    <contour>
      <point x="17" y="811"/>
      <point x="46" y="784"/>
      <point x="82" y="784" type="curve" smooth="yes"/>
      <point x="117" y="784"/>
      <point x="143" y="811"/>
      <point x="143" y="847" type="curve" smooth="yes"/>
      <point x="143" y="883"/>
      <point x="117" y="909"/>
      <point x="82" y="909" type="curve" smooth="yes"/>
      <point x="46" y="909"/>
      <point x="17" y="883"/>
      <point x="17" y="847" type="curve" smooth="yes"/>
    </contour>
    <contour>
      <point x="230" y="811"/>
      <point x="258" y="784"/>
      <point x="294" y="784" type="curve" smooth="yes"/>
      <point x="329" y="784"/>
      <point x="356" y="811"/>
      <point x="356" y="847" type="curve" smooth="yes"/>
      <point x="356" y="883"/>
      <point x="329" y="909"/>
      <point x="294" y="909" type="curve" smooth="yes"/>
      <point x="258" y="909"/>
      <point x="230" y="883"/>
      <point x="230" y="847" type="curve" smooth="yes"/>
    </contour>
    <contour>
      <point x="186" y="737" type="move" name="_top"/>
    </contour>
  </outline>
</glyph>
<glyph name="grave.case" format="1">
  <advance width="252"/>
  <outline>
    <contour>
      <point x="167" y="758" type="line"/>
      <point x="179" y="768"/>
      <point x="190" y="782"/>
      <point x="195" y="792" type="curve"/>
      <point x="49" y="924" type="line"/>
      <point x="23" y="929"/>
      <point x="3" y="908"/>
      <point x="-16" y="856" type="curve"/>
    </contour>
    <contour>
      <point x="140" y="737" type="move" name="_top"/>
    </contour>
  </outline>
</glyph>
